<svg width="24" height="24" viewBox="0 0 24 24" fill="none" xmlns="http://www.w3.org/2000/svg">
<path d="M10.0299 13.5126L14.5075 8.47059L13.5224 7.46218H12.6269L8.59702 3.02521V1.71429L2.77612 0L4.02985 6.85714H5.19403L9.13433 11.395V12.5042L10.0299 13.5126Z" fill="white"/>
<path d="M10.0299 3.63025L12.0896 5.94958L12.8955 5.14286L10.7463 2.82353L10.0299 3.63025Z" fill="white"/>
<path d="M8.86567 15.7311L16.1194 7.66387L18 9.68067L10.7463 17.8487L8.86567 15.7311Z" fill="white"/>
<path d="M5.64179 8.57143L0 14.7227V19.6639L7.70149 10.9916L5.64179 8.57143Z" fill="white"/>
<path d="M9.31348 21.7448L11.5387 24L17.1018 17.2345L16.4342 15.9816L17.7694 16.4828L24 9.46674L21.7748 7.46216L16.2117 13.7265L16.8793 14.2276L17.7694 13.7265H18.882L17.1018 15.2299L16.2117 14.9793L15.5441 14.4782L15.0991 14.9793L15.5441 15.4805L15.7667 16.7334V16.9839L14.8766 18.2368V17.2345V16.4828L14.4315 15.7311L9.31348 21.7448Z" fill="white"/>
<path d="M18.6595 16.7334L19.327 17.7356H22.4424L22.8874 16.7334V15.7311H19.327L18.6595 16.7334Z" fill="white"/>
<path d="M19.327 19.9908L21.3298 22.246H22.8874V20.9931L20.6622 18.7379H19.327V19.9908Z" fill="white"/>
<path d="M18.437 18.2368V22.7471H16.6568V20.7425L17.5469 18.2368H18.437Z" fill="white"/>
</svg>
