<svg width="24" height="24" viewBox="0 0 24 24" fill="none" xmlns="http://www.w3.org/2000/svg">
<path d="M14.2574 7.74194C15.6498 4.91319 15.8795 3.23828 14.7327 0C10.6016 5.53264 8.19037 8.4851 3.51825 13.1613L5.94059 16.4869L7.84158 19.0968L9.9802 16C9.54552 17.9273 10.3392 23.1224 10.9307 24C11.6219 13.9398 14.6316 7.49054 24 2.83871C19.4432 3.5684 17.0117 4.78904 14.2574 7.74194Z" fill="white"/>
<path d="M3.51825 13.1613L0 17.2903L2.13861 21.1613L5.94059 16.4869L3.51825 13.1613Z" fill="white"/>
<path d="M14.2574 16C17.5546 20.4856 17.5842 24 14.2574 24C10.9307 24 11.5478 20.2623 14.2574 16Z" fill="white"/>
</svg>
