<svg width="29" height="24" viewBox="0 0 29 24" fill="none" xmlns="http://www.w3.org/2000/svg">
<path fill-rule="evenodd" clip-rule="evenodd" d="M1.38085 24H29L14.9142 0.927062L1.38085 24ZM13.2571 19.6052L11.5999 18.2318V22.3519H16.2952L14.9142 20.7039L20.7143 16.8584L15.4666 13.5622L18.5047 9.99143L13.2571 7.51933L10.7714 14.3863L16.019 17.1331L13.2571 19.6052Z" fill="white"/>
<path d="M3.59049 16.4807L0 6.86695L3.03811 5.49356V0H6.3524L10.7715 2.74678L6.07621 10.1631L4.14287 8.78969L3.59049 16.4807Z" fill="white"/>
<path d="M29 13.0129L21.5428 8.89272L24.0286 6.96997L18.5047 4.77255L24.5809 0.103029L28.7238 7.51933L27.0667 8.61804L27.3429 9.99143L29 13.0129Z" fill="white"/>
</svg>
