<svg width="24" height="21" viewBox="0 0 24 21" fill="none" xmlns="http://www.w3.org/2000/svg">
<path d="M12.019 0C17.0768 0 21.287 3.68164 22.1877 8.5474H18.0903C17.2114 6.18563 14.892 4.49863 12.1689 4.49863C9.16554 4.49863 6.65316 6.55085 6.02306 9.29717H18.3148H22.261C24.7272 9.29717 24.4273 11.9964 22.261 11.9964C21.5286 17.0656 17.2192 20.9936 12.019 20.9936C7.01325 20.9936 2.83777 17.3874 1.87909 12.5962H6.19401C7.02903 15.0362 9.38858 16.7949 12.1689 16.7949C15.2807 16.7949 17.8369 14.7419 18.3472 11.8464L5.93387 11.9964H1.73895C-0.427272 11.9964 -0.727186 9.29717 1.73895 9.29717C2.32573 4.06488 6.70443 0 12.019 0Z" fill="#D9D9D9"/>
</svg>
