<svg width="24" height="28" viewBox="0 0 24 28" fill="none" xmlns="http://www.w3.org/2000/svg">
<path d="M4.41509 8.60377C2.83019 12.6792 1.91719e-06 16.6415 0 19.5849C0 25.0189 7.5849 26.6038 10.5283 27.283C1.92453 19.0189 4.41509 16.4151 4.41509 8.60377Z" fill="white"/>
<path d="M19.5849 8.60377C21.1698 12.6792 24 16.6415 24 19.5849C24 25.0189 16.4151 26.6038 13.4717 27.283C22.0755 19.0189 19.5849 16.4151 19.5849 8.60377Z" fill="white"/>
<path d="M12.0002 0C13.6983 7.81132 18.1134 12.7925 18.0002 16.6415C18.0233 19.4549 16.1641 21.5347 12.0002 25.4717C7.83627 21.5347 5.97689 19.4549 6 16.6415C5.88679 12.7925 10.3021 7.81132 12.0002 0Z" fill="white"/>
</svg>
