<svg width="25" height="24" viewBox="0 0 25 24" fill="none" xmlns="http://www.w3.org/2000/svg">
<path d="M20.751 3.69995C20.628 3.39995 20.261 3.29993 19.531 3.29993C18.257 3.39993 15.998 7.89998 16.111 5.09998C14.183 3.99998 15.938 8.29995 13.873 8.69995C12.571 10.1 13.172 7.79998 13.037 7.09998C12.827 6.09998 13.299 5.40002 14.04 4.90002L16.101 2.79993C15.068 0.0999267 12.515 5.8 13.13 2.5C13.62 1.5 12.809 0.1 12.043 0H12.055C11.853 0 11.661 0.0999268 11.479 0.299927C11.314 0.399927 11.157 0.600024 11.046 0.900024H11.034C10.978 1.00002 10.92 1.19993 10.886 1.29993H10.875C10.85 1.39993 10.817 1.49995 10.809 1.69995H10.825C10.819 1.79995 10.813 1.89998 10.835 2.09998H10.851C10.875 2.19998 10.902 2.4 10.958 2.5H10.974C11.045 2.9 11.065 3.19993 11.053 3.29993C11.052 3.29993 11.069 3.40002 11.068 3.40002C11.061 3.40002 11.029 3.5 11.006 3.5C10.981 3.5 10.939 3.59998 10.897 3.59998C10.854 3.59998 10.808 3.5 10.751 3.5C10.58 3.4 10.364 3.10002 10.104 2.90002C9.7652 2.60002 9.3621 2.19998 8.9933 2.09998C8.7976 2.09998 8.618 2.09995 8.4437 2.19995C8.3599 2.19995 8.2923 2.30002 8.217 2.40002C8.1344 2.50002 8.0572 2.69993 7.9872 2.79993L10.038 4.90002C10.409 5.10002 10.712 5.49993 10.891 5.79993C10.935 5.89993 10.978 5.99998 11.006 6.09998C11.035 6.19998 11.054 6.30002 11.066 6.40002C11.094 6.60002 11.077 6.79998 11.022 7.09998C10.988 7.19998 11.007 7.49993 11.026 7.79993C11.035 7.99993 11.016 8.09995 11.024 8.19995C11.03 8.39995 11.056 8.59995 11.049 8.69995C11.044 8.79995 11.042 8.9 11.011 9C10.966 9.1 10.876 9.09998 10.749 9.09998C10.626 9.09998 10.444 8.89995 10.213 8.69995H10.197C9.949 8.59995 9.7488 8.50002 9.5986 8.40002C9.5219 8.30002 9.4693 8.19998 9.4129 8.09998C9.3527 7.99998 9.2906 7.89993 9.2504 7.79993C9.1766 7.59993 9.1405 7.29998 9.1098 7.09998H9.094C9.0796 6.89998 9.0818 6.79995 9.0728 6.69995C9.063 6.59995 9.0705 6.49993 9.0632 6.29993C9.0562 6.19993 9.0504 6.1 9.042 6C9.0335 5.9 9.0073 5.69998 8.9934 5.59998C8.9869 5.59998 8.9658 5.6 8.9574 5.5C8.864 5 8.6456 4.69998 7.9816 5.09998H7.9975C8.003 5.29998 7.9896 5.4 7.9797 5.5C7.9791 5.5 7.9961 5.49998 7.9955 5.59998C7.9844 5.69998 7.9505 5.69993 7.926 5.79993C7.8992 5.89993 7.8775 5.9 7.8363 6H7.6834C7.5755 6 7.4349 5.89993 7.2857 5.79993C6.8434 5.39993 6.2527 4.6 5.6755 4C5.2872 3.6 4.9004 3.29993 4.5804 3.29993C4.5737 3.29993 4.5712 3.19995 4.5645 3.19995C3.8163 3.19995 3.4745 3.39995 3.3612 3.69995C3.3303 3.79995 3.3052 3.9 3.3032 4C3.3015 4 3.3241 4.09995 3.3476 4.19995C3.3916 4.39995 3.4815 4.60002 3.6136 4.90002C3.8607 5.30002 4.2377 5.69998 4.6245 6.09998C5.0199 6.49998 5.4225 6.8 5.7281 7C6.1558 7.3 6.3535 7.49998 6.3749 7.59998C6.3805 7.59998 6.3642 7.69995 6.3517 7.69995C6.2377 7.89995 5.4658 7.8 5.0808 8C4.9955 8.1 4.9316 8.19993 4.8974 8.29993C4.9298 8.39993 4.9744 8.4 5.024 8.5C5.1731 8.7 5.3786 8.80002 5.6422 8.90002C6.1705 9.00002 6.8692 8.9 7.4966 9C7.7024 9.1 7.8946 9.09995 8.0747 9.19995C8.3449 9.29995 8.5754 9.49993 8.7373 9.79993C8.7913 9.99993 8.835 10.1 8.8725 10.2C9.0763 10.3 9.2221 10.4 9.3177 10.5C9.4133 10.6 9.4525 10.6999 9.4602 10.7999H9.4486C9.4337 10.7999 9.4244 10.8 9.3937 10.9C9.0876 11 8.048 10.8 7.5795 10.9C7.2007 11 6.8507 11 6.531 10.9C6.2114 10.8 5.9169 10.7 5.6417 10.5C5.512 10.4 5.3779 10.3 5.2556 10.2C5.1264 10.1 4.9879 10 4.8652 9.90002C4.6267 9.60002 4.3902 9.29998 4.1667 9.09998C4.1351 8.99998 4.1106 8.89993 4.0632 8.79993C4.0131 8.69993 3.9424 8.6 3.8775 8.5C3.8228 8.5 3.7579 8.39993 3.696 8.29993C3.6271 8.29993 3.5502 8.29995 3.4755 8.19995H3.2318C3.0033 8.09995 2.7624 8.19995 2.5684 8.19995C2.4237 8.29995 2.3285 8.4 2.2436 8.5C2.2012 8.5 2.1635 8.59998 2.1381 8.59998C2.1133 8.69998 2.0964 8.69993 2.0918 8.79993H2.1076C2.1065 8.89993 2.1159 8.9 2.1319 9C2.1749 9.2 2.3097 9.49995 2.6574 9.69995C3.2427 9.99995 3.519 10.3 3.5838 10.5C3.6 10.5 3.5852 10.6 3.5765 10.6C3.5655 10.6 3.577 10.7 3.5533 10.7H3.5259C3.3933 10.8 3.1347 10.9 2.8002 10.9H2.7728H2.2349H2.2074H1.0957C0.786 10.9 0.56005 11 0.39009 11.2H0.33525C0.19643 11.3 0.10411 11.4 0.0579503 11.5C0.0528413 11.5 0.0506953 11.6 0.0463623 11.6C0.0298733 11.6 0.000362303 11.7 6.30268e-06 11.7C-0.000365627 11.7 0.0158473 11.7999 0.0158373 11.7999C0.0181973 11.7999 0.0365973 11.9 0.0559823 12C0.13331 12.3 0.393662 12.4999 0.742912 12.7999C0.915832 12.8999 1.0932 13 1.2978 13C1.7153 13.2 2.1704 13.2 2.5857 13C3.3735 12.8 3.6522 12.9 3.6658 13C3.6548 13.1 3.5831 13.1999 3.4592 13.2999C3.3285 13.4999 3.1563 13.6999 2.9784 13.7999C2.819 13.9999 2.6495 14.2 2.5134 14.4H2.5018C2.3635 14.6 2.2388 14.8 2.194 14.9C2.1733 15 2.1582 15.1 2.1677 15.2H2.1835C2.1854 15.3 2.1968 15.2999 2.1993 15.2999C2.2425 15.4999 2.4314 15.8 2.921 15.9L4.9815 13.9C4.9898 13.9 4.9847 13.8999 4.993 13.7999C5.1315 13.6999 5.2623 13.5 5.419 13.4C5.8888 13 6.4537 12.8 7.1646 12.9C7.7011 13 8.9014 12.7 9.1951 13H9.2426C9.2466 13.1 9.2564 13.1 9.2584 13.1C9.2592 13.1 9.2464 13.1 9.2352 13.2C9.1915 13.3 9.0553 13.5 8.7861 13.7H8.8019C8.7801 13.9 8.7406 14 8.6933 14C8.0768 15.3 5.4646 14.5 5.0895 15.2C5.0655 15.2 5.0318 15.3 5.0273 15.4H5.0431C5.0416 15.4 5.0293 15.5 5.0558 15.6C5.0822 15.7 5.1335 15.8 5.2026 15.9H5.2184C5.5723 15.9 5.798 15.9 5.9452 16C6.0711 16 6.1556 16.1 6.1425 16.2C6.0646 16.8 3.8661 18.1 3.422 19.1C3.3853 19.1 3.3471 19.1999 3.3367 19.2999H3.3525C3.3512 19.4999 3.3469 19.6999 3.3664 19.7999H3.3822C3.4027 19.8999 3.4205 20 3.4582 20.1C3.4616 20.1 3.4706 20.2 3.4741 20.2C3.556 20.3 3.6807 20.5 3.8212 20.5C4.7005 20.9 6.5927 19.1 7.141 18.2C7.4924 17.7 7.6878 17.5 7.7979 17.5C7.84 17.6 7.8707 17.6 7.8929 17.7H7.9087C7.9313 17.8 7.9413 17.9 7.9573 18.1C7.9999 18.4 8.0631 18.8 8.2677 19H8.4133C8.5326 19.1 8.6715 19.1 8.8763 19C8.8765 18.9 8.8878 18.9 8.8879 18.9C8.8897 18.7 8.8795 18.4999 8.893 18.2999C8.894 18.2999 8.9035 18.3 8.9046 18.2C8.9191 18 8.9507 17.8 8.9803 17.6H8.9919C9.0236 17.4 9.0596 17.2 9.1109 17C9.1648 16.8 9.2216 16.5 9.3006 16.4C9.4358 16 9.6297 15.7 9.8541 15.4C9.8977 15.4 9.9236 15.3 9.9711 15.2C10.112 15.1 10.246 14.8999 10.424 14.7999C10.602 14.5999 10.805 14.4999 11.023 14.2999L11.019 17.7999C10.592 18.4999 9.7567 19.0999 9.1667 19.7999C8.9281 19.8999 8.7593 20 8.6225 20.2C8.5685 20.2 8.5019 20.2999 8.4623 20.2999C8.4548 20.2999 8.4577 20.3 8.4507 20.4C8.4069 20.4 8.3743 20.5 8.3495 20.6H8.3379C8.3052 20.7 8.2649 20.8 8.2726 20.9C8.2792 21.1 8.3276 21.1999 8.3961 21.2999C8.4931 21.4999 8.6476 21.6 8.8255 21.6C8.8947 21.7 8.9474 21.7 9.0259 21.7C9.1659 21.7 9.3241 21.6 9.4847 21.5C9.6454 21.4 9.8113 21.3 9.9814 21C10.116 20.9 10.235 20.7 10.337 20.6C10.54 20.4 10.698 20.3 10.799 20.2C10.835 20.2 10.876 20.2999 10.901 20.2999C10.963 20.3999 10.987 20.5 10.997 20.7C11.007 20.9 11.018 21.2 11.012 21.4C11.005 21.7 10.981 21.9999 10.992 22.2999H11.008C11.02 22.5999 11.037 22.8 11.098 23.1C11.159 23.3 11.274 23.5 11.419 23.7C11.494 23.8 11.567 23.8 11.671 23.9C11.781 23.9 11.895 24 12.044 24C14.226 24 11.962 18.2 14.109 21C15.469 22.7 16.703 20.4999 14.928 19.7999C14.338 19.0999 13.477 18.5999 13.05 17.7999L13.038 14.4C14.788 15.4 15.188 17.1 15.203 19C16.721 19.7 15.537 16.2 16.943 18.2C17.668 19.4 20.802 22.1999 20.758 19.2999C20.575 18.0999 16.062 15.8 18.893 15.9C20.027 14 15.654 15.8 15.313 13.7C13.877 12.4 16.126 13.1 16.924 12.9C17.871 12.7 18.542 13.2 19.096 13.9L21.163 15.9C23.881 14.9 18.161 12.4 21.522 13C23.149 13.7 25.463 11.4 22.986 10.9C21.673 11 19.069 11 21.41 9.69995C23.149 8.39995 20.432 7.29998 19.926 9.09998C19.006 10.1 18.033 11.3 16.518 10.9C15.768 10.8 13.569 11.3 15.199 10.2C15.799 8.09995 18.677 9.69993 19.196 8.29993C18.922 7.49993 16.643 8.3 18.354 7C19.271 6.5 21.118 4.59995 20.751 3.69995Z" fill="white"/>
</svg>
