<svg width="24" height="24" viewBox="0 0 24 24" fill="none" xmlns="http://www.w3.org/2000/svg">
<g clip-path="url(#clip0_919_404)">
<path fill-rule="evenodd" clip-rule="evenodd" d="M7.97819 17.5443L16.0476 17.5443L15.16 12.7834C20.7279 11.2502 18.3877 3.26145 12.0936 3.10007C4.66973 3.26146 3.54001 12.4606 8.86582 12.622L7.97819 17.5443ZM12.7391 12.7834L11.206 12.7027L12.0129 10.2819L12.7391 12.7834ZM9.10791 14.3166L9.02721 16.6567L10.0762 16.576L10.1569 15.527H11.448V16.6567L12.4164 16.6567L12.4164 15.527L13.8689 15.527L13.8689 16.6567L14.9179 16.576L14.8372 14.3973L9.10791 14.3166ZM16.5034 7.88689C15.7596 7.20592 14.4322 7.44526 13.5384 8.42146C12.6446 9.39766 12.523 10.7411 13.2668 11.422C14.0106 12.103 15.3381 11.8636 16.2318 10.8874C17.1256 9.91124 17.2472 8.56785 16.5034 7.88689ZM10.4797 11.3309C11.1928 10.6178 11.0121 9.28108 10.0762 8.34519C9.14035 7.4093 7.80361 7.22866 7.09056 7.94172C6.3775 8.65478 6.55814 9.99151 7.49403 10.9274C8.42991 11.8633 9.76665 12.0439 10.4797 11.3309Z" fill="white"/>
<path d="M5.47667 1.64757C1.52266 7.86099 1.36833 16.4075 9.10791 20.2879L14.7565 20.2879C21.7575 16.3967 22.9873 8.50656 18.3877 1.64753C24.5205 6.00504 24.5205 16.3339 20.0016 20.8528C18.2264 22.628 16.4411 23.1876 14.8372 23.7577L9.10791 23.6771C7.00987 23.1929 4.93376 22.0412 3.70015 20.6901C0.312234 16.9795 -1.62441 7.29613 5.47667 1.64757Z" fill="white"/>
<path fill-rule="evenodd" clip-rule="evenodd" d="M7.97819 17.5443L16.0476 17.5443L15.16 12.7834C20.7279 11.2502 18.3877 3.26145 12.0936 3.10007C4.66973 3.26146 3.54001 12.4606 8.86582 12.622L7.97819 17.5443ZM12.7391 12.7834L11.206 12.7027L12.0129 10.2819L12.7391 12.7834ZM9.10791 14.3166L9.02721 16.6567L10.0762 16.576L10.1569 15.527H11.448V16.6567L12.4164 16.6567L12.4164 15.527L13.8689 15.527L13.8689 16.6567L14.9179 16.576L14.8372 14.3973L9.10791 14.3166ZM16.5034 7.88689C15.7596 7.20592 14.4322 7.44526 13.5384 8.42146C12.6446 9.39766 12.523 10.7411 13.2668 11.422C14.0106 12.103 15.3381 11.8636 16.2318 10.8874C17.1256 9.91124 17.2472 8.56785 16.5034 7.88689ZM10.4797 11.3309C11.1928 10.6178 11.0121 9.28108 10.0762 8.34519C9.14035 7.4093 7.80361 7.22866 7.09056 7.94172C6.3775 8.65478 6.55814 9.99151 7.49403 10.9274C8.42991 11.8633 9.76665 12.0439 10.4797 11.3309Z" stroke="#1B1E22" stroke-width="0.35"/>
<path d="M5.47667 1.64757C1.52266 7.86099 1.36833 16.4075 9.10791 20.2879L14.7565 20.2879C21.7575 16.3967 22.9873 8.50656 18.3877 1.64753C24.5205 6.00504 24.5205 16.3339 20.0016 20.8528C18.2264 22.628 16.4411 23.1876 14.8372 23.7577L9.10791 23.6771C7.00987 23.1929 4.93376 22.0412 3.70015 20.6901C0.312234 16.9795 -1.62441 7.29613 5.47667 1.64757Z" stroke="#1B1E22" stroke-width="0.35"/>
</g>
<defs>
<clipPath id="clip0_919_404">
<rect width="24" height="24" fill="white"/>
</clipPath>
</defs>
</svg>
