<svg width="24" height="24" viewBox="0 0 24 24" fill="none" xmlns="http://www.w3.org/2000/svg">
<path d="M0.100418 3.71449L3.8159 7.32859H6.5272L8.93724 9.73799H9.74059V9.03525L7.43096 6.72624V3.6141L3.61506 0V3.6141H0L0.100418 3.71449Z" fill="white"/>
<path fill-rule="evenodd" clip-rule="evenodd" d="M9.841 7.62977C13.6569 3.31292 23.8996 8.83447 18.5774 16.4642L17.8745 15.9623L18.477 14.6572H17.4728L17.6736 12.8501H16.7699L16.4686 15.4603H17.0711V15.9623L16.2678 17.6689H13.1548L15.0628 16.2634V15.4603H14.5607C13.0498 16.392 12.2284 17.2243 10.8452 19.6768L9.841 19.3756L10.5439 18.1709L9.841 17.6689L9.03766 18.974L7.83264 18.4721L8.83682 17.0666L8.03347 16.5646L7.12971 18.0705L6.0251 17.2674L7.23013 15.7615L6.42678 15.0587L5.52301 16.4642L4.82008 15.6611L7.6318 10.4407C9.841 11.7458 11.749 9.23603 9.841 7.62977ZM10.2427 11.6454L7.43096 13.4525L9.23849 14.7576L10.2427 11.6454ZM13.3556 14.9584C14.6867 14.9584 15.7657 13.8347 15.7657 12.4486C15.7657 11.0624 14.6867 9.93877 13.3556 9.93877C12.0246 9.93877 10.9456 11.0624 10.9456 12.4486C10.9456 13.8347 12.0246 14.9584 13.3556 14.9584Z" fill="white"/>
<path d="M17.6736 16.8658L20.887 20.2791C21.3133 19.6486 21.4948 19.2547 21.6904 18.4721C23.0359 19.8629 23.6618 20.8649 24 23.9936C21.1167 24.077 20.0738 23.3461 18.477 21.6846C19.2486 21.4539 19.5834 21.2949 20.0837 20.9819L17.1715 18.0705L17.6736 16.8658Z" fill="white"/>
<path d="M15.5649 19.3756L17.1715 19.5764L17.5732 20.8815C17.1699 21.4015 16.8524 21.5385 16.1674 21.5842L15.5649 19.3756Z" fill="white"/>
<path d="M14.7615 20.0783V22.6885C14.0209 22.9176 13.6649 22.8182 13.1548 22.1866L14.7615 20.0783Z" fill="white"/>
<path d="M20.0837 16.1631C21.2439 15.4881 21.9799 15.2711 23.5983 15.4603L22.8954 17.167L20.0837 16.1631Z" fill="white"/>
<path d="M14.9623 12.3482C14.9623 13.2353 14.243 13.9544 13.3556 13.9544C12.4683 13.9544 11.749 13.2353 11.749 12.3482C11.749 11.4611 12.4683 10.7419 13.3556 10.7419C14.243 10.7419 14.9623 11.4611 14.9623 12.3482Z" fill="white"/>
</svg>
