<svg width="16" height="24" viewBox="0 0 16 24" fill="none" xmlns="http://www.w3.org/2000/svg">
<path d="M9.64706 2.51429L8.23529 1.82857L6.82353 1.37143L3.29412 1.82857L2.11765 3.65714V5.71429L0.941176 6.4V8.68571L1.64706 11.4286L4.23529 12.8L5.88235 13.2571L6.82353 13.9429H10.3529L13.4118 11.6571V8L12 6.17143L10.3529 4.8H7.29412L5.88235 6.4V7.54286L6.35294 8.45714H7.52941L8.23529 6.85714H9.17647L9.88235 7.31429L10.1176 8V9.6L9.41176 10.5143H5.64706L4.23529 8.91429L3.76471 8.22857V7.54286L4.47059 7.08571V3.88571L5.64706 3.2L6.58824 2.74286H7.76471L9.64706 2.51429Z" fill="white"/>
<path d="M8.70588 0.457143L12.2353 0C13.8566 1.05831 14.6342 1.76097 15.5294 3.42857L14.8235 8.91429C14.6667 8.45714 14.0706 7.45143 13.8824 7.08571C13.6941 6.72 13.4902 5.71429 13.4118 5.25714L12 4.8L11.5294 2.51429L10.8235 1.6L9.64706 0.914286L8.70588 0.457143Z" fill="white"/>
<path d="M8.94118 17.1429V16H11.0588L12 15.0857H13.1765V16L11.5294 17.8286H10.3529L9.88235 17.3714L8.94118 17.1429Z" fill="white"/>
<path d="M7.29412 16V17.1429L6.35294 17.3714L5.88235 17.8286H4.70588L3.05882 16V15.0857H4.23529L5.17647 16H7.29412Z" fill="white"/>
<path d="M11.0588 22.1714L14.3529 18.2857V17.3714H13.1765L10.5882 20.3429V22.1714H10.8235H11.0588Z" fill="white"/>
<path d="M4.94118 22.1714L1.64706 18.2857V17.3714H2.82353L5.41176 20.3429V22.1714H5.17647H4.94118Z" fill="white"/>
<path d="M5.17647 22.8571L6.82353 21.9429H9.41176L10.8235 23.0857L9.41176 24H6.58824L5.17647 22.8571Z" fill="white"/>
<path d="M2.11765 16.4571V14.8571L1.64706 14.6286V13.9429L2.11765 13.7143V12.8L1.41176 12.5714H0.705882L0 13.4857V15.7714L1.41176 16.4571H2.11765Z" fill="white"/>
<path d="M13.8824 16.6857H14.5882L16 15.0857V13.4857L15.0588 12.1143L14.5882 11.6571H14.1176L13.6471 12.1143V13.2571L14.5882 13.9429V14.8571L13.8824 15.3143V16.6857Z" fill="white"/>
</svg>
