<svg width="24" height="24" viewBox="0 0 24 24" fill="none" xmlns="http://www.w3.org/2000/svg">
<path d="M0 3.22689C0.10084 5.61345 0.302521 10.3261 0.302521 10.084C0.302521 9.84202 0.907563 6.82353 1.21008 5.34454L2.62185 9.07563V6.05042L4.43697 7.36134L3.93277 4.84034L6.55462 6.05042L4.94118 3.83193H7.2605L5.34454 2.42017L7.96639 1.81513L5.7479 1.41176L7.96639 0H3.52941C5.34454 2.11765 3.52941 5.34454 0 3.22689Z" fill="white"/>
<path d="M8.26891 1.0084L9.88235 0.201681H19.4622L14.2185 2.42017L24 4.03361L14.0168 5.54622L22.8908 9.37815L13.3109 8.36975L19.9664 13.6134L10.8908 10.084L17.6471 19.0588L9.17647 12.8067L12.605 21.2773L6.95798 14.2185L7.96639 23.8992L3.73109 14.0168L2.62185 22.6891L1.51261 15.2269C1.10924 16.0672 0.302521 17.6471 0.302521 17.2437V11.7983L1.21008 9.68067L2.62185 15.9328L3.22689 10.084L5.34454 14.521L4.94118 9.37815L8.26891 13.6134L5.7479 7.36134L9.88235 11.1933L7.96639 7.76471L12.2017 9.68067L7.96639 6.05042L12.9076 6.65546L7.96639 4.43697L13.3109 3.83193L7.96639 2.72269L12.9076 1.0084H8.26891Z" fill="white"/>
</svg>
