<svg width="21" height="24" viewBox="0 0 21 24" fill="none" xmlns="http://www.w3.org/2000/svg">
<path d="M8.59371 8.38606L9.37519 7.78461L9.5289 7.66577L9.71521 7.72184C9.71521 7.72184 10.2616 7.88712 11.0177 8.35409L11.0575 7.02067L13.0789 7.19404L11.4362 0L11.0506 5.36888L8.58993 4.64468L8.59371 8.38606Z" fill="white"/>
<path d="M4.66437 14.3534L4.69257 15.3465L4.6977 15.5422L4.85782 15.6537C4.85782 15.6537 5.32803 15.9802 6.16203 16.2824L5.16151 17.1511L6.56427 18.6341L0 21.8581L3.88686 18.183L1.78466 16.6999L4.66437 14.3534Z" fill="white"/>
<path d="M16.3356 14.3534L16.3074 15.3465L16.3023 15.5422L16.1422 15.6537C16.1422 15.6537 15.672 15.9802 14.838 16.2824L15.8385 17.1511L14.4357 18.6341L21 21.8581L17.1131 18.183L19.2153 16.6999L16.3356 14.3534Z" fill="white"/>
<path d="M7.55263 13.7942C7.57166 12.1775 7.68778 11.3471 9.21053 10.8117L5.34211 4.4738C1.84786 6.92628 0.368421 9.13399 0 13.7942H7.55263Z" fill="white"/>
<path d="M13.0789 13.6078C13.0789 15.0491 11.9243 16.2175 10.5 16.2175C9.07569 16.2175 7.92105 15.0491 7.92105 13.6078C7.92105 12.1665 9.07569 10.9981 10.5 10.9981C11.9243 10.9981 13.0789 12.1665 13.0789 13.6078Z" fill="white"/>
<path d="M13.4474 13.7942C13.4283 12.1775 13.3122 11.3471 11.7895 10.8117L15.6579 4.4738C19.1521 6.92628 20.6316 9.13399 21 13.7942H13.4474Z" fill="white"/>
<path d="M8.65789 16.4039L5.34211 22.1825C10.1316 24.6058 11.0526 24.6058 16.0263 22.1825L12.3421 16.4039C11.0526 16.9631 10.1279 16.9798 8.65789 16.4039Z" fill="white"/>
</svg>
