<svg width="26" height="24" viewBox="0 0 26 24" fill="none" xmlns="http://www.w3.org/2000/svg">
<path d="M15.7041 9.14611C16.2623 8.75966 16.6917 8.24438 17.0352 7.64323C15.8759 6.82738 14.4589 6.35504 12.956 6.35504C11.4531 6.35504 10.0361 6.82738 8.87671 7.64323C9.22023 8.24438 9.64962 8.75966 10.2078 9.14611C11.0237 8.63084 11.9684 8.33026 12.956 8.33026C13.9436 8.33026 14.9312 8.63084 15.7041 9.14611Z" fill="white"/>
<path d="M20.0411 12.9248C19.3541 12.9248 18.6671 13.0536 18.0659 13.3542V13.483C18.0659 15.4582 16.9924 17.1329 15.3607 18.0346C15.4466 18.7216 15.6184 19.3657 15.9619 19.9669C18.3665 18.8075 20.0411 16.36 20.0411 13.483C20.0841 13.3113 20.0841 13.0966 20.0411 12.9248Z" fill="white"/>
<path d="M7.80328 13.483V13.3542C7.20213 13.0966 6.5151 12.9248 5.82806 12.9678V13.526C5.82806 16.4029 7.50271 18.8505 9.90732 20.0098C10.2508 19.4087 10.4655 18.7646 10.5514 18.0776C8.91971 17.1758 7.80328 15.4583 7.80328 13.483Z" fill="white"/>
<path d="M2.99404 12.8819C5.52748 11.422 8.74794 12.1519 10.3367 14.5136L11.3243 13.9554C11.2814 13.7836 11.2384 13.6548 11.2384 13.4831C11.2384 12.6672 11.7967 12.0231 12.5266 11.8514V10.7349C9.64968 10.5202 7.37388 8.11561 7.37388 5.15278C7.37388 2.87698 8.70501 0.90176 10.6373 0.0429688C7.76033 0.98764 5.69924 3.73577 5.69924 6.9133C5.69924 7.90091 5.87099 8.80264 6.21451 9.66144C5.31278 9.79025 4.45399 10.0908 3.5952 10.5632C0.847063 12.1519 -0.484064 15.3295 0.16003 18.3352C0.0312113 16.1883 1.06176 14.0413 2.99404 12.8819Z" fill="white"/>
<path d="M25.8378 16.8753C25.8807 14.3418 24.5496 11.8943 22.2309 10.5202C21.415 10.0479 20.5133 9.74728 19.6116 9.61847C19.9551 8.75967 20.1268 7.85794 20.1268 6.87033C20.1268 3.64986 18.0657 0.944671 15.1888 0C17.1211 0.858792 18.4522 2.83401 18.4522 5.10981C18.4522 8.07264 16.1764 10.4773 13.2994 10.692V11.8084C14.0294 11.9801 14.5876 12.6672 14.5876 13.4401C14.5876 13.6118 14.5447 13.7836 14.5017 13.9554L15.4894 14.5136C17.0781 12.109 20.2986 11.379 22.875 12.8389C24.6355 13.8695 25.666 15.7159 25.666 17.6482C25.666 17.8629 25.666 18.0346 25.6231 18.2493C25.7949 17.8199 25.8378 17.3476 25.8378 16.8753Z" fill="white"/>
<path d="M17.4217 22.4574C15.6183 21.4268 14.6307 19.5375 14.6307 17.6052C14.6307 16.7894 14.8024 15.9306 15.1889 15.1577L14.2013 14.5995C13.9007 14.943 13.4713 15.1147 12.956 15.1147C12.4837 15.1147 12.0113 14.9 11.7108 14.5565L10.7232 15.1147C12.0113 17.734 11.0667 20.9116 8.4903 22.4145C6.51508 23.5738 4.19634 23.3591 2.47876 22.1568C4.75456 24.175 8.10384 24.6473 10.8949 23.0156C11.7108 22.5433 12.3978 21.9421 12.956 21.2122C13.5142 21.9421 14.2013 22.5433 15.0171 23.0156C17.7652 24.6044 21.1575 24.175 23.4333 22.1568C21.7157 23.445 19.354 23.6168 17.4217 22.4574Z" fill="white"/>
<path d="M22.7733 2.76923C25.0142 5.61588 25.0343 7.84615 22.7733 7.84615C20.5122 7.84615 20.9317 5.47415 22.7733 2.76923Z" fill="white"/>
<path d="M3.38863 15.6923C5.62959 18.539 5.6497 20.7692 3.38863 20.7692C1.12757 20.7692 1.54702 18.3972 3.38863 15.6923Z" fill="white"/>
</svg>
