<svg width="24" height="32" viewBox="0 0 24 32" fill="none" xmlns="http://www.w3.org/2000/svg">
<path d="M13.9227 2C13.9227 3.10457 13.0322 4 11.9337 4C10.8352 4 9.94475 3.10457 9.94475 2C9.94475 0.89543 10.8352 0 11.9337 0C13.0322 0 13.9227 0.89543 13.9227 2Z" fill="white"/>
<path d="M10.8729 7.06666C10.8729 8.17122 9.98244 9.06666 8.88398 9.06666C7.78551 9.06666 6.89503 8.17122 6.89503 7.06666C6.89503 5.96209 7.78551 5.06666 8.88398 5.06666C9.98244 5.06666 10.8729 5.96209 10.8729 7.06666Z" fill="white"/>
<path d="M14.9834 7.99999C14.9834 8.58909 14.5085 9.06666 13.9227 9.06666C13.3368 9.06666 12.8619 8.58909 12.8619 7.99999C12.8619 7.41089 13.3368 6.93332 13.9227 6.93332C14.5085 6.93332 14.9834 7.41089 14.9834 7.99999Z" fill="white"/>
<path d="M12.9945 10.9333C12.9945 11.5224 12.5196 12 11.9337 12C11.3479 12 10.8729 11.5224 10.8729 10.9333C10.8729 10.3442 11.3479 9.86666 11.9337 9.86666C12.5196 9.86666 12.9945 10.3442 12.9945 10.9333Z" fill="white"/>
<path d="M0 32H24C18.2287 24.2676 15.8949 20.3113 16.0442 15.0667C17.4593 13.8628 17.6237 13.3087 17.5028 12.4C17.5028 12.1333 16.7072 12 16.442 12C12.9945 13.3333 11.1381 13.3333 7.8232 12C7.55801 12 6.49724 12 6.49724 12.4C6.37628 13.3087 6.54068 13.8628 7.9558 15.0667C8.10511 20.3113 5.77129 24.2676 0 32Z" fill="white"/>
</svg>
