<svg width="25" height="28" viewBox="0 0 25 28" fill="none" xmlns="http://www.w3.org/2000/svg">
<path d="M20.8532 18.8949V0.858156H21.5969V0H2.71748C1.21909 0 0 1.21909 0 2.71748V24.2858H0.00820321C0.00333602 24.352 0 24.4186 0 24.486C0 25.9844 1.21909 27.2035 2.71748 27.2035H5.17754V28L7.46594 26.5917L9.75434 28V27.2035L15.9532 27.2035V26.3453V22.6266V21.7685L2.71748 21.7685C1.99866 21.7685 1.34466 22.0496 0.858156 22.5069V2.71748C0.858156 1.69225 1.6923 0.858156 2.71748 0.858156H4.14772V20.6244H5.00587V0.858156H19.995V18.8949H20.8532ZM8.89618 26.4643L7.46594 25.5841L6.0357 26.4643V24.9151H8.89623L8.89618 26.4643ZM5.00587 22.6267L15.9532 22.6266V23.3275H12.3288V24.1857H15.9532V24.7863H11.1846V25.6445H15.9532V26.3453H9.75434V24.0569H5.17748V26.3453H5.00587C3.98065 26.3453 3.14655 25.5112 3.14655 24.486C3.14655 23.4608 3.98065 22.6267 5.00587 22.6267ZM2.71748 22.6267H3.02673C2.56938 23.1132 2.2884 23.7672 2.2884 24.486C2.2884 25.2048 2.56944 25.8588 3.02673 26.3453H2.71748C1.69225 26.3453 0.858156 25.5112 0.858156 24.486C0.858156 23.4608 1.69225 22.6267 2.71748 22.6267Z" fill="white"/>
<path d="M11.7566 23.3274H10.3264V24.1855H11.7566V23.3274Z" fill="white"/>
<path d="M15.4181 16.5051H9.69705V17.3633H15.4181V16.5051Z" fill="white"/>
<path d="M14.2739 17.9355H10.8413V18.7937H14.2739V17.9355Z" fill="white"/>
<path d="M16.1046 15.075H10.9557V15.9331H16.1046V15.075Z" fill="white"/>
<path d="M10.3836 15.075H8.95334V15.9331H10.3836V15.075Z" fill="white"/>
<path d="M6.15005 1.97363V3.86155H7.00821V2.83179H18.107V3.80435H18.9651V1.97363H6.15005Z" fill="white"/>
<path d="M18.107 5.52075V19.7661H7.00821V5.57795H6.15005V20.6243H18.9651V5.52075H18.107Z" fill="white"/>
<path d="M14.7184 4.20093H13.921C13.4771 5.31787 13.1615 5.63352 12.0445 6.07742V6.87487C13.1615 7.31872 13.4771 7.63437 13.921 8.75137H14.7184C15.1623 7.63437 15.4779 7.31872 16.5949 6.87487V6.07742C15.478 5.63352 15.1623 5.31787 14.7184 4.20093ZM14.3197 7.58565C14.0339 7.09242 13.7034 6.76189 13.2102 6.47615C13.7034 6.1904 14.0339 5.85982 14.3197 5.36659C14.6054 5.85982 14.936 6.19029 15.4292 6.47615C14.936 6.76194 14.6055 7.09247 14.3197 7.58565Z" fill="white"/>
<path d="M12.9735 8.34302H12.1761C11.8641 9.12817 11.6568 9.33538 10.8717 9.64742V10.4449C11.6568 10.7569 11.8641 10.9641 12.1761 11.7493H12.9735C13.2856 10.9641 13.4928 10.7569 14.2779 10.4449V9.64742C13.4928 9.33543 13.2855 9.12822 12.9735 8.34302ZM12.5748 10.6392C12.4114 10.3974 12.2236 10.2096 11.9818 10.0462C12.2236 9.8828 12.4113 9.695 12.5748 9.45323C12.7383 9.69495 12.9261 9.8828 13.1678 10.0462C12.9261 10.2097 12.7382 10.3975 12.5748 10.6392Z" fill="white"/>
<path d="M10.4792 5.94019H9.68179C9.36974 6.72533 9.16253 6.93255 8.37738 7.24459V8.04204C9.16253 8.35409 9.36974 8.5613 9.68179 9.34645H10.4792C10.7912 8.5613 10.9985 8.35409 11.7836 8.04204V7.24454C10.9984 6.93254 10.7912 6.72528 10.4792 5.94019ZM10.0805 8.23624C9.91705 7.99452 9.7292 7.80667 9.48748 7.64326C9.7292 7.47986 9.91705 7.29201 10.0805 7.05029C10.2439 7.29201 10.4317 7.47986 10.6734 7.64326C10.4317 7.80672 10.2439 7.99452 10.0805 8.23624Z" fill="white"/>
<path d="M19.8043 23.9496V23.8246H19.6793H16.5024V22.974H19.6793H19.8043V22.849V19.6721H20.6549V22.849V22.974H20.7799H23.9568V23.8246H20.7799H20.6549V23.9496V27.1265H19.8043V23.9496Z" fill="white" stroke="#1B1E22" stroke-width="0.25"/>
</svg>
