<svg width="332" height="91" viewBox="0 0 332 91" fill="none" xmlns="http://www.w3.org/2000/svg">
<path d="M148.591 33.8837L148.236 35.2103L146.358 36.1291L146.145 36.925L148.023 36.0063L147.667 37.3329L145.789 38.2517L145.541 39.1803L147.454 38.1289L147.134 39.3228L145.256 40.2416L139.391 62.1309L140.649 64.032L138.076 67.0394L137.224 63.1143L139.137 62.0629L145.003 40.1736L143.836 38.4391L144.156 37.2452L145.287 39.1123L145.536 38.1837L144.369 36.4492L144.725 35.1226L145.891 36.8571L146.105 36.0611L144.938 34.3266L145.293 33L146.424 34.8671L146.678 34.9351L148.591 33.8837Z" fill="white" stroke="white"/>
<path d="M305.341 43.7836L304.986 45.1103L303.108 46.029L302.895 46.825L304.773 45.9062L304.417 47.2329L302.539 48.1516L302.291 49.0803L304.204 48.0288L303.884 49.2228L302.006 50.1416L296.141 72.0308L297.399 73.9319L294.826 76.9393L293.974 73.0143L295.887 71.9628L301.753 50.0736L300.586 48.3391L300.906 47.1451L302.037 49.0123L302.286 48.0836L301.119 46.3492L301.475 45.0225L302.641 46.757L302.855 45.9611L301.688 44.2266L302.043 42.9L303.174 44.7671L303.428 44.8351L305.341 43.7836Z" fill="white" stroke="white"/>
<path d="M202.298 42.934L202.654 44.2606L201.487 45.9951L201.7 46.7911L202.867 45.0566L203.222 46.3832L202.056 48.1177L202.304 49.0464L203.436 47.1792L203.755 48.3732L202.589 50.1077L208.454 71.9969L210.494 73.0143L209.769 76.9054L207.069 73.932L208.2 72.0649L202.335 50.1756L200.457 49.2569L200.138 48.0629L202.051 49.1143L201.802 48.1857L199.924 47.2669L199.569 45.9403L201.446 46.8591L201.233 46.0631L199.356 45.1443L199 43.8177L200.913 44.8691L201.167 44.8012L202.298 42.934Z" fill="white" stroke="white"/>
<path d="M60.398 23.134L60.7535 24.4607L59.5868 26.1951L59.8001 26.9911L60.9668 25.2566L61.3222 26.5833L60.1555 28.3177L60.4044 29.2464L61.5355 27.3792L61.8554 28.5732L60.6887 30.3077L66.554 52.1969L68.594 53.2144L67.8692 57.1054L65.1691 54.132L66.3003 52.2649L60.4351 30.3756L58.5574 29.4569L58.2375 28.2629L60.1507 29.3143L59.9019 28.3857L58.0242 27.467L57.6688 26.1403L59.5464 27.0591L59.3331 26.2631L57.4555 25.3444L57.1 24.0177L59.0132 25.0692L59.2669 25.0012L60.398 23.134Z" fill="white" stroke="white"/>
<path d="M74.4305 6.81655C77.1076 5.57718 79.2174 6.62342 80.4514 9.2889C81.6854 11.9544 80.4749 13.7285 80.2945 14.2166C80.1141 14.7047 87.0814 28.8768 87.0814 28.8768L99.7977 22.9898L101.649 26.988C103.962 31.9857 103.986 36.4254 101.874 40.6401L97.2461 30.6445L91.2226 33.4331C94.8285 40.626 100.279 51.5001 104.776 60.4738L93.3846 58.7308L83.8605 36.8414L78.1716 39.475L82.799 49.4706C77.884 48.5092 74.6945 45.1307 72.535 40.4661L70.6841 36.4679L82.7311 30.8907C82.7311 30.8907 76.4331 16.4089 75.9442 16.2306C75.4553 16.0524 73.3194 15.8274 72.0854 13.1619C70.8514 10.4965 71.7534 8.05592 74.4305 6.81655Z" fill="white" stroke="#1B1E22"/>
<path d="M274.831 41.6768C272.954 39.7992 270.847 40.0288 268.977 41.8983C267.108 43.7677 267.58 45.6423 267.581 46.1106C267.582 46.579 257.299 56.3926 257.299 56.3926L248.381 47.4739L245.576 50.2781C242.071 53.7833 240.674 57.5273 241.152 61.7438L248.162 54.7333L252.387 58.958C247.109 63.9171 239.13 71.4145 232.547 77.6021L242.713 79.6627L257.55 64.1214L261.54 68.1113L254.53 75.1217C258.981 75.834 262.724 73.9686 265.995 70.6971L268.8 67.8929L260.35 59.4437C260.35 59.4437 270.164 49.1607 270.632 49.1617C271.101 49.1628 272.975 49.6352 274.845 47.7658C276.714 45.8963 276.709 43.5544 274.831 41.6768Z" fill="white" stroke="#1B1E22"/>
<path d="M1 54.6976C136.791 50.5498 221 100.324 331 68.5238" stroke="white" stroke-width="5"/>
</svg>
