<svg width="23" height="26" viewBox="0 0 23 26" fill="none" xmlns="http://www.w3.org/2000/svg">
<path d="M10.5839 24.6861C10.8745 24.8504 11.0198 24.9326 11.2248 24.9752C11.384 25.0083 11.616 25.0083 11.7752 24.9752C11.9802 24.9326 12.1255 24.8504 12.4161 24.6861C14.9729 23.24 22 18.6974 22 12.4518V5.58074C22 4.87081 22 4.51584 21.859 4.2453C21.7341 4.00545 21.5389 3.814 21.293 3.69002C21.0156 3.55018 20.6433 3.54592 19.8984 3.53738C15.9982 3.49267 13.7491 3.18044 11.5 1C9.2509 3.18044 7.00179 3.49267 3.10158 3.53738C2.35677 3.54592 1.98436 3.55018 1.70698 3.69002C1.46107 3.814 1.2659 4.00545 1.14095 4.2453C1 4.51584 1 4.87081 1 5.58074V12.4518C1 18.6974 8.02707 23.24 10.5839 24.6861Z" stroke="white" stroke-linecap="round" stroke-linejoin="round"/>
</svg>
