<svg width="161" height="160" viewBox="0 0 161 160" fill="none" xmlns="http://www.w3.org/2000/svg">
<path d="M90.5625 145H40.25C29.1812 145 20.125 136 20.125 125V35C20.125 24 29.1812 15 40.25 15H90.5625C101.631 15 110.688 24 110.688 35V125C110.688 136 101.631 145 90.5625 145Z" stroke="white" stroke-width="2" stroke-miterlimit="10" stroke-linecap="round" stroke-linejoin="round"/>
<path d="M110.688 32L135.844 47C145.403 52.5 148.422 65 142.384 74.5L110.688 127.5" stroke="white" stroke-width="2" stroke-miterlimit="10" stroke-linecap="round" stroke-linejoin="round"/>
<path d="M140.875 80L143.391 83.5C149.931 92.5 147.416 105 138.359 111.5L109.681 131.5" stroke="white" stroke-width="2" stroke-miterlimit="10" stroke-linecap="round" stroke-linejoin="round"/>
<path d="M55.8691 69.6005C53.7456 68.9817 51.7177 68.4544 49.7853 68.0185C48.9889 65.4979 48.5869 62.8694 48.5935 60.2261C48.5935 48.6931 56.0062 39.3433 65.1503 39.3433C74.2945 39.3433 81.7001 48.6843 81.7001 60.219C81.7055 62.7384 81.3407 65.2448 80.6173 67.6581C78.2126 68.162 75.6509 68.8095 72.9322 69.6005C69.065 70.729 65.9378 71.847 64.3962 72.4218C62.8634 71.847 59.7363 70.729 55.8691 69.6005ZM33.3779 84.5313C31.4601 84.5313 29.5854 85.1001 27.9908 86.1656C26.3963 87.2311 25.1535 88.7455 24.4197 90.5173C23.6858 92.2891 23.4939 94.2388 23.8682 96.1197C24.2425 98.0006 25.1661 99.7283 26.5223 101.084C27.8785 102.44 29.6064 103.364 31.4873 103.737C33.3683 104.111 35.3179 103.919 37.0896 103.185C38.8613 102.451 40.3755 101.208 41.4407 99.613C42.5059 98.0183 43.0743 96.1435 43.074 94.2257C43.0735 91.6544 42.0517 89.1886 40.2334 87.3706C38.4151 85.5527 35.9491 84.5313 33.3779 84.5313ZM96.6222 84.5313C94.7044 84.5313 92.8297 85.1001 91.2351 86.1656C89.6406 87.2311 88.3978 88.7455 87.664 90.5173C86.9302 92.2891 86.7383 94.2388 87.1125 96.1197C87.4868 98.0006 88.4104 99.7283 89.7666 101.084C91.1228 102.44 92.8507 103.364 94.7317 103.737C96.6126 104.111 98.5622 103.919 100.334 103.185C102.106 102.451 103.62 101.208 104.685 99.613C105.75 98.0183 106.319 96.1435 106.318 94.2257C106.318 91.6547 105.296 89.1892 103.478 87.3713C101.66 85.5533 99.1949 84.5318 96.6239 84.5313H96.6222ZM84.1154 94.2257C84.118 91.8073 84.821 89.4413 86.1392 87.4138C87.4574 85.3862 89.3346 83.7837 91.5439 82.7999V69.1681C80.2077 69.1681 64.3962 75.4329 64.3962 75.4329C64.3962 75.4329 48.5847 69.1681 37.2486 69.1681V82.3376C39.7578 83.1552 41.944 84.7456 43.4943 86.8813C45.0446 89.017 45.8795 91.5884 45.8795 94.2274C45.8795 96.8665 45.0446 99.4379 43.4943 101.574C41.944 103.709 39.7578 105.3 37.2486 106.117V107.348C48.5847 107.348 64.3962 114.657 64.3962 114.657C64.3962 114.657 80.2148 107.353 91.5439 107.353V105.651C89.3346 104.668 87.4574 103.065 86.1392 101.038C84.821 99.01 84.118 96.6441 84.1154 94.2257Z" fill="white"/>
</svg>
