<svg width="365" height="393" viewBox="0 0 365 393" fill="none" xmlns="http://www.w3.org/2000/svg">
<path d="M81.1733 165.073L0.912487 284.729C-1.42956 288.567 0.988527 293.556 5.42169 294.048L163.784 310.988L81.1733 165.073ZM5.63461 242.114L62.8855 148.202L4.60806 112.909C2.57777 111.681 0 113.155 0 115.542V240.51C0 243.603 4.02255 244.754 5.63461 242.114ZM13.8774 325.142L161.7 392.427C165.73 394.307 170.331 391.329 170.331 386.854V336.448L15.5503 319.331C12.1665 318.948 10.813 323.622 13.8774 325.142ZM75.6375 127.278L136.417 17.562C139.717 12.1429 133.687 5.85654 128.22 9.01125L13.5428 84.7011C11.6646 85.9446 11.7255 88.7386 13.6417 89.9053L75.6375 127.278ZM182.497 135.092H265.541L192.862 5.84887C190.482 1.94962 186.489 0 182.497 0C178.505 0 174.513 1.94962 172.133 5.84887L99.4534 135.092H182.497ZM360.387 112.909L302.109 148.21L359.36 242.122C360.965 244.762 364.995 243.611 364.995 240.51V115.542C364.995 113.155 362.417 111.681 360.387 112.909ZM289.357 127.278L351.353 89.8976C353.277 88.7309 353.33 85.9369 351.452 84.6935L236.775 9.01125C231.308 5.85654 225.278 12.1429 228.578 17.562L289.357 127.278ZM349.444 319.331L194.664 336.44V386.847C194.664 391.329 199.264 394.3 203.294 392.419L351.117 325.134C354.182 323.622 352.828 318.948 349.444 319.331ZM283.821 165.073L201.219 310.988L359.581 294.048C364.014 293.549 366.432 288.567 364.09 284.729L283.821 165.073ZM182.497 159.654H106.13L182.497 294.554L258.865 159.654H182.497Z" fill="black" fill-opacity="0.15"/>
</svg>
