<svg width="81" height="81" viewBox="0 0 81 81" fill="none" xmlns="http://www.w3.org/2000/svg">
<path d="M62.3384 72.5488C58.146 54.3618 33.7068 45.2651 27.983 38.6554C25.0404 35.2571 25.7776 31.647 27.6159 29.7042C29.5903 27.6223 33.3524 27.2109 36.1589 29.0429C38.6142 30.6408 43.392 35.0736 44.4646 36.7095C45.5372 38.3421 45.5245 39.6932 46.1004 40.7911C46.7554 42.0251 48.2361 42.6832 50.3814 42.0409C52.3684 41.4492 53.4663 40.6645 53.4663 40.6645C53.4663 40.6645 51.3907 40.5854 50.5681 39.4179C50.5681 39.4179 47.6888 33.1056 46.6573 30.5237C49.9574 31.4002 52.052 32.4127 53.517 33.3366C53.6973 34.7414 53.0993 37.1619 53.074 37.2695C53.1404 37.2315 54.2067 36.6019 55.7919 35.023C55.871 35.0895 55.9501 35.1527 56.0261 35.2129C56.5861 35.659 55.5546 39.1869 55.5546 39.1869C55.5546 39.1869 57.491 37.8865 58.9718 36.1273C60.2532 34.6117 61.3322 32.6879 61.3322 32.6879C61.3322 32.6879 57.1398 30.9161 55.2066 27.8469C53.267 24.7809 54.9566 21.4523 54.9566 21.4523C54.9566 21.4523 51.7229 20.4145 49.0145 16.5101C46.1668 12.4031 47.2679 7.35645 47.2679 7.35645C44.9518 8.28668 42.9205 12.8936 42.9205 12.8936C42.9205 12.8936 37.0702 9.77063 29.4701 10.742C22.6136 10.723 16.2411 6.56543 13.596 0C13.596 0 11.5488 8.98277 19.3039 14.637C18.8831 14.9217 18.4623 15.2223 18.0415 15.545C14.2573 17.6998 9.45105 17.5732 5.7491 14.9787C5.7491 14.9787 5.94527 16.3266 6.66668 17.9466C7.38809 19.5634 8.63156 21.4555 10.7293 22.5439C10.954 22.661 11.1755 22.7559 11.3938 22.8382C10.9571 23.5343 10.5521 24.2557 10.1883 24.9961C8.12215 28.4639 3.97406 30.2168 0 29.179C0 29.179 2.08512 32.9854 5.82504 33.4505C6.68883 33.558 7.44187 33.4283 8.08734 33.172C8.0557 34.7477 8.1348 36.2222 8.31199 37.6207C8.21707 40.6835 6.15094 43.4014 3.13875 44.2621H3.13559C3.13559 44.2621 6.0402 45.9897 8.72965 44.8253C9.25488 44.5975 9.65988 44.2874 9.97313 43.9425C12.1816 49.2771 16.1873 53.5802 21.2941 58.4877C22.6642 59.8071 24.2019 61.2183 25.7618 62.6896C41.1075 63.5755 52.7259 70.4447 62.5662 81C62.8763 78.7092 63.1041 75.8679 62.3384 72.5488ZM46.1668 21.6137L50.5079 25.9327L43.5786 23.433L46.1668 21.6137ZM56.6377 41.6065C56.6377 41.6065 58.7595 43.7694 61.7017 44.1994C61.503 45.3758 61.2028 45.9624 61.2028 45.9624C61.2028 45.9624 66.2526 50.0283 72.4377 47.409C72.1523 50.6604 68.121 52.095 68.121 52.095C68.121 52.095 72.4517 57.4616 81 54.1688C76.3624 60.2042 69.4388 58.5222 65.2278 56.3659C61.4429 54.4279 56.5696 48.7035 56.6377 41.6065Z" fill="#1B1E22" fill-opacity="0.25"/>
</svg>
