<svg width="81" height="81" viewBox="0 0 81 81" fill="none" xmlns="http://www.w3.org/2000/svg">
<path d="M18.6616 72.5488C22.854 54.3618 47.2932 45.2651 53.017 38.6554C55.9596 35.2572 55.2224 31.647 53.3841 29.7042C51.4097 27.6223 47.6476 27.2109 44.8411 29.0429C42.3858 30.6408 37.608 35.0736 36.5354 36.7095C35.4628 38.3421 35.4755 39.6932 34.8996 40.7911C34.2446 42.0251 32.7639 42.6832 30.6186 42.0409C28.6316 41.4492 27.5337 40.6645 27.5337 40.6645C27.5337 40.6645 29.6093 40.5854 30.4319 39.4179C30.4319 39.4179 33.3112 33.1056 34.3427 30.5237C31.0426 31.4002 28.948 32.4127 27.483 33.3366C27.3027 34.7414 27.9007 37.1619 27.926 37.2695C27.8596 37.2315 26.7933 36.6019 25.2081 35.023C25.129 35.0895 25.0499 35.1527 24.9739 35.2129C24.4139 35.659 25.4454 39.1869 25.4454 39.1869C25.4454 39.1869 23.509 37.8865 22.0282 36.1273C20.7468 34.6117 19.6678 32.6879 19.6678 32.6879C19.6678 32.6879 23.8602 30.9161 25.7934 27.8469C27.733 24.7809 26.0434 21.4523 26.0434 21.4523C26.0434 21.4523 29.2771 20.4145 31.9855 16.5101C34.8332 12.4031 33.7321 7.35645 33.7321 7.35645C36.0482 8.28668 38.0795 12.8936 38.0795 12.8936C38.0795 12.8936 43.9298 9.77063 51.5299 10.742C58.3864 10.723 64.7589 6.56543 67.404 0C67.404 0 69.4512 8.98277 61.6961 14.637C62.1169 14.9217 62.5377 15.2223 62.9585 15.545C66.7427 17.6998 71.5489 17.5732 75.2509 14.9787C75.2509 14.9787 75.0547 16.3266 74.3333 17.9466C73.6119 19.5634 72.3684 21.4555 70.2707 22.5439C70.046 22.661 69.8245 22.7559 69.6062 22.8382C70.0429 23.5343 70.4479 24.2557 70.8117 24.9961C72.8779 28.4639 77.0259 30.2168 81 29.179C81 29.179 78.9149 32.9854 75.175 33.4505C74.3112 33.558 73.5581 33.4283 72.9127 33.172C72.9443 34.7477 72.8652 36.2222 72.688 37.6207C72.7829 40.6835 74.8491 43.4014 77.8612 44.2621H77.8644C77.8644 44.2621 74.9598 45.9897 72.2704 44.8253C71.7451 44.5975 71.3401 44.2874 71.0269 43.9425C68.8184 49.2771 64.8127 53.5802 59.7059 58.4877C58.3358 59.8071 56.7981 61.2183 55.2382 62.6896C39.8925 63.5755 28.2741 70.4447 18.4338 81C18.1237 78.7092 17.8959 75.8679 18.6616 72.5488ZM34.8332 21.6137L30.4921 25.9327L37.4214 23.433L34.8332 21.6137ZM24.3623 41.6065C24.3623 41.6065 22.2405 43.7694 19.2983 44.1994C19.497 45.3758 19.7972 45.9624 19.7972 45.9624C19.7972 45.9624 14.7474 50.0283 8.56227 47.409C8.84767 50.6604 12.879 52.095 12.879 52.095C12.879 52.095 8.54835 57.4616 0 54.1688C4.63757 60.2042 11.5612 58.5222 15.7722 56.3659C19.5571 54.4279 24.4304 48.7035 24.3623 41.6065Z" fill="#1B1E22" fill-opacity="0.25"/>
</svg>
