<svg width="35" height="35" viewBox="0 0 35 35" fill="none" xmlns="http://www.w3.org/2000/svg">
<path d="M8.47431 31.1083C10.207 23.3706 20.3076 19.5004 22.6732 16.6883C23.8894 15.2425 23.5847 13.7065 22.8249 12.88C22.0089 11.9942 20.4541 11.8192 19.2942 12.5987C18.2794 13.2785 16.3048 15.1644 15.8615 15.8604C15.4182 16.555 15.4234 17.1298 15.1854 17.5969C14.9147 18.1219 14.3027 18.4019 13.4161 18.1287C12.5948 17.8769 12.1411 17.5431 12.1411 17.5431C12.1411 17.5431 12.9989 17.5094 13.3389 17.0127C13.3389 17.0127 14.5289 14.3271 14.9552 13.2287C13.5913 13.6015 12.7256 14.0323 12.1202 14.4254C12.0456 15.0231 12.2928 16.0529 12.3032 16.0987C12.2758 16.0825 11.8351 15.8146 11.1799 15.1429C11.1472 15.1712 11.1145 15.1981 11.0832 15.2237C10.8517 15.4135 11.278 16.9144 11.278 16.9144C11.278 16.9144 10.4777 16.3612 9.86569 15.6127C9.33608 14.9679 8.89016 14.1494 8.89016 14.1494C8.89016 14.1494 10.6228 13.3956 11.4218 12.0898C12.2235 10.7854 11.5252 9.36923 11.5252 9.36923C11.5252 9.36923 12.8616 8.92769 13.981 7.26654C15.1579 5.51923 14.7028 3.37212 14.7028 3.37212C15.6601 3.76789 16.4996 5.72789 16.4996 5.72789C16.4996 5.72789 18.9175 4.39923 22.0586 4.8125C24.8924 4.80443 27.5261 3.03558 28.6193 0.24231C28.6193 0.24231 29.4654 4.06404 26.2602 6.46962C26.4342 6.59077 26.6081 6.71866 26.782 6.85596C28.346 7.77269 30.3324 7.71885 31.8624 6.615C31.8624 6.615 31.7813 7.18846 31.4832 7.87769C31.185 8.56558 30.6711 9.37058 29.8041 9.83366C29.7112 9.88346 29.6197 9.92385 29.5295 9.95885C29.7099 10.255 29.8773 10.5619 30.0277 10.8769C30.8816 12.3523 32.596 13.0981 34.2385 12.6565C34.2385 12.6565 33.3767 14.276 31.831 14.4738C31.474 14.5196 31.1628 14.4644 30.896 14.3554C30.9091 15.0258 30.8764 15.6531 30.8032 16.2481C30.8424 17.5512 31.6963 18.7075 32.9412 19.0737H32.9425C32.9425 19.0737 31.7421 19.8087 30.6305 19.3133C30.4135 19.2163 30.2461 19.0844 30.1166 18.9377C29.2038 21.2073 27.5483 23.0381 25.4377 25.126C24.8715 25.6873 24.2359 26.2877 23.5912 26.9137C17.2489 27.2906 12.4471 30.2131 8.38015 34.7038C8.252 33.7292 8.15785 32.5204 8.47431 31.1083ZM15.1579 9.43789L13.3638 11.2754L16.2276 10.2119L15.1579 9.43789ZM10.8304 17.9438C10.8304 17.9438 9.95344 18.8641 8.73742 19.047C8.81954 19.5475 8.94364 19.7971 8.94364 19.7971C8.94364 19.7971 6.85656 21.5269 4.30029 20.4125C4.41824 21.7958 6.08437 22.4062 6.08437 22.4062C6.08437 22.4062 4.29453 24.6894 0.761539 23.2885C2.67822 25.8563 5.53972 25.1406 7.28012 24.2232C8.84439 23.3987 10.8585 20.9633 10.8304 17.9438Z" fill="white"/>
</svg>
