<svg width="36" height="35" viewBox="0 0 36 35" fill="none" xmlns="http://www.w3.org/2000/svg">
<path d="M27.2912 31.1083C25.5075 23.3706 15.1098 19.5004 12.6746 16.6883C11.4227 15.2425 11.7363 13.7065 12.5185 12.88C13.3585 11.9942 14.959 11.8192 16.1531 12.5987C17.1977 13.2785 19.2304 15.1644 19.6867 15.8604C20.1431 16.555 20.1377 17.1298 20.3827 17.5969C20.6613 18.1219 21.2913 18.4019 22.204 18.1287C23.0494 17.8769 23.5165 17.5431 23.5165 17.5431C23.5165 17.5431 22.6335 17.5094 22.2835 17.0127C22.2835 17.0127 21.0585 14.3271 20.6196 13.2287C22.0237 13.6015 22.9148 14.0323 23.5381 14.4254C23.6148 15.0231 23.3604 16.0529 23.3496 16.0987C23.3779 16.0825 23.8315 15.8146 24.506 15.1429C24.5396 15.1712 24.5733 15.1981 24.6056 15.2237C24.8438 15.4135 24.405 16.9144 24.405 16.9144C24.405 16.9144 25.2288 16.3612 25.8588 15.6127C26.404 14.9679 26.8631 14.1494 26.8631 14.1494C26.8631 14.1494 25.0794 13.3956 24.2569 12.0898C23.4317 10.7854 24.1506 9.36923 24.1506 9.36923C24.1506 9.36923 22.7748 8.92769 21.6225 7.26654C20.411 5.51923 20.8794 3.37212 20.8794 3.37212C19.894 3.76789 19.0298 5.72789 19.0298 5.72789C19.0298 5.72789 16.5408 4.39923 13.3073 4.8125C10.3902 4.80443 7.67904 3.03558 6.55365 0.24231C6.55365 0.24231 5.68269 4.06404 8.98212 6.46962C8.80308 6.59077 8.62404 6.71866 8.445 6.85596C6.835 7.77269 4.79019 7.71885 3.21519 6.615C3.21519 6.615 3.29865 7.18846 3.60558 7.87769C3.9125 8.56558 4.44154 9.37058 5.33404 9.83366C5.42962 9.88346 5.52385 9.92385 5.61673 9.95885C5.43096 10.255 5.25865 10.5619 5.10385 10.8769C4.22481 12.3523 2.46 13.0981 0.76923 12.6565C0.76923 12.6565 1.65635 14.276 3.2475 14.4738C3.615 14.5196 3.93538 14.4644 4.21 14.3554C4.19654 15.0258 4.23019 15.6531 4.30558 16.2481C4.26519 17.5512 3.38615 18.7075 2.10462 19.0737H2.10327C2.10327 19.0737 3.33904 19.8087 4.48327 19.3133C4.70673 19.2163 4.87904 19.0844 5.01231 18.9377C5.95192 21.2073 7.65615 23.0381 9.82885 25.126C10.4117 25.6873 11.066 26.2877 11.7296 26.9137C18.2585 27.2906 23.2015 30.2131 27.3881 34.7038C27.52 33.7292 27.6169 32.5204 27.2912 31.1083ZM20.411 9.43789L22.2579 11.2754L19.3098 10.2119L20.411 9.43789ZM24.8658 17.9438C24.8658 17.9438 25.7685 18.8641 27.0203 19.047C26.9358 19.5475 26.808 19.7971 26.808 19.7971C26.808 19.7971 28.9565 21.5269 31.5879 20.4125C31.4665 21.7958 29.7514 22.4062 29.7514 22.4062C29.7514 22.4062 31.5939 24.6894 35.2308 23.2885C33.2577 25.8563 30.3121 25.1406 28.5205 24.2232C26.9102 23.3987 24.8368 20.9633 24.8658 17.9438Z" fill="white"/>
</svg>
