<svg width="197" height="164" viewBox="0 0 197 164" fill="none" xmlns="http://www.w3.org/2000/svg">
<path d="M36.1655 76.4807L17.9403 81.085C13.6142 80.7342 11.6258 79.7322 9.49915 75.3296L1.24984 41.565C0.273637 29.6317 1.98328 24.8877 9.49915 20.2703M36.1655 76.4807L28.1081 41.565C23.8182 25.3772 20.1206 19.7185 9.49915 20.2703M36.1655 76.4807L53.0479 146.696C59.4607 161.124 64.303 163.82 69.3546 162.811M9.49915 20.2703L96.9802 1.08587C107.871 0.426548 111.016 3.52178 114.246 11.8292L118.85 26.4093M118.85 26.4093L134.965 14.1313C154.642 2.05186 167.571 0.0755048 194.437 3.77169M118.85 26.4093L115.589 29.6707L113.479 44.6345L108.875 37.7281C97.5361 56.017 94.7921 65.4313 104.654 74.1786M69.3546 162.811C78.259 158.14 80.1248 154.617 77.7958 139.789L74.9181 127.319C74.5492 122.244 75.6197 120.165 80.2898 118.111L137.459 104.49M69.3546 162.811L152.807 142.667C160.179 139.383 162.106 135.055 160.673 121.948L157.411 107.176C154.857 102.102 152.537 100.916 146.476 102.38L137.459 104.49M137.459 104.49L129.018 71.1091M129.018 71.1091C142.064 61.9005 145.301 56.0419 150.888 48.4714L142.639 46.553L157.219 40.9895C172.84 21.6061 181.082 13.0404 194.437 3.77169M129.018 71.1091C124.414 75.3296 113.479 79.9339 104.654 74.1786M194.437 3.77169C160.946 12.9223 141.832 21.9856 104.654 74.1786M104.654 74.1786C97.4135 85.5682 93.8629 91.7085 89.3064 101.804" stroke="white" stroke-width="1.5"/>
<path d="M61.2972 108.135L64.5585 102.38L68.2036 106.6L72.616 98.9265L78.1795 104.49L87.1962 102.38M78.1795 73.9867L98.7068 69.1906M60.1461 67.8477L97.3639 59.0229M72.8078 54.4186L100.433 48.0878M62.2564 46.553L101.201 37.1526M71.0812 24.6827L97.3639 18.16" stroke="white" stroke-opacity="0.3"/>
</svg>
