<svg width="96" height="96" viewBox="0 0 96 96" fill="none" xmlns="http://www.w3.org/2000/svg">
<g clip-path="url(#clip0_735_290)">
<path d="M24 63.36L34.56 59.52C34.56 59.52 39.36 60.48 44.16 59.52C49.92 58.56 49.92 52.8 50.88 49.92C51.84 47.04 48.96 48.96 52.8 51.84C56.64 54.72 63.36 54.72 66.24 52.8C70.08 50.88 70.08 47.04 70.08 47.04L75.84 45.12C76.8 40.32 79.68 36.48 85.44 36.48C92.16 36.48 95.04 44.16 95.04 44.16L83.52 43.2L82.56 51.84L93.12 52.8C92.16 55.68 89.28 59.52 82.56 58.56C78.72 57.6 76.8 56.64 76.8 56.64L24.96 73.92C24.96 73.92 24 76.8 22.08 78.72C20.16 80.64 16.32 81.6 12.48 80.64C7.68 79.68 3.84 75.84 2.88 72.96L16.32 73.92L17.28 65.28L5.76 64.32C7.68 60.48 10.56 58.56 14.4 58.56C21.12 58.56 24 63.36 24 63.36Z" fill="#1B1E22" stroke="white"/>
<path d="M31.6801 55.6799C32.6401 60.4799 43.2001 62.3999 48.0001 57.5999C50.8801 53.7599 50.8801 49.9199 50.8801 49.9199C50.8801 49.9199 53.7601 54.7199 60.4801 54.7199C70.0801 54.7199 70.0801 44.1599 70.0801 44.1599" stroke="white" stroke-linecap="round"/>
<path d="M14.36 13.1599C6.68002 13.1599 -0.039978 19.8799 -0.039978 28.5199C0.056022 36.1999 5.91202 43.8799 14.36 43.8799C23.96 43.8799 30.68 37.1599 30.68 28.5199H26.84C26.84 31.3999 23.96 35.2399 19.16 35.2399C14.36 35.2399 12.44 31.3999 12.44 27.5599C12.44 23.7199 16.28 19.8799 19.16 19.8799C23.96 19.8799 26.84 23.7199 26.84 27.5599V28.5199H30.68C30.68 19.8799 24.92 13.1599 14.36 13.1599Z" fill="white"/>
<path d="M64.28 23.7199C69.0518 23.7199 72.92 19.8517 72.92 15.0799C72.92 10.3082 69.0518 6.43994 64.28 6.43994C59.5083 6.43994 55.64 10.3082 55.64 15.0799C55.64 19.8517 59.5083 23.7199 64.28 23.7199Z" fill="white"/>
<path d="M36.44 33.3199L55.64 27.5599C57.56 26.5999 59.48 26.5999 58.52 30.4399L51.8 42.9199C50.84 44.8399 49.88 44.8399 48.92 42.9199L36.44 36.1999C33.56 35.2399 36.44 33.3199 36.44 33.3199Z" fill="white"/>
</g>
<defs>
<clipPath id="clip0_735_290">
<rect width="96" height="96" fill="white"/>
</clipPath>
</defs>
</svg>
