<svg width="24" height="24" viewBox="0 0 24 24" fill="none" xmlns="http://www.w3.org/2000/svg">
<path d="M11.6354 0.000619611C6.03235 -0.0577866 0.00734676 4.01443 0 11.5893L1.09196 8.9515C0.608046 12.6612 0.696564 16.5082 3.071 19.3446L0.942324 18.4063C2.94431 21.9874 7.38772 23.0755 11.1898 23.1543C5.32538 21.1031 2.45606 16.606 2.25413 11.69C1.91118 0.820667 15.5527 0.51714 19.6404 7.80118C19.4661 6.80078 19.2005 5.82902 18.8436 4.92142C22.7928 9.49717 21.8687 15.9496 17.7574 17.9081C16.5202 18.1109 15.261 18.5271 14.6476 18.8833C11.6605 20.6181 14.3277 25.3775 17.3631 23.6147C17.8447 23.335 18.5571 22.7266 19.225 22.0056C22.5086 18.9508 24.23 15.9371 23.9753 12.3085C23.6426 13.802 22.997 15.2804 22.1578 16.6547C25.3801 9.11932 22.5637 3.11098 14.7683 1.1882C15.3855 1.48767 15.9674 1.88773 16.4965 2.38711C13.5672 1.16808 9.80669 1.22617 6.96182 2.567C8.39372 1.22233 10.2666 0.322624 12.176 0.0191988C11.9964 0.00867748 11.8162 0.00251858 11.6354 0.000619611Z" fill="white"/>
</svg>
