<svg width="24" height="24" viewBox="0 0 24 24" fill="none" xmlns="http://www.w3.org/2000/svg">
<g clip-path="url(#clip0_957_975)">
<path d="M14.0608 0C13.6973 0.0847767 11.5581 0.596171 8.91833 1.54348C6.0462 2.57393 2.8523 4.1021 1.60751 5.73747C0.0177098 7.81586 -0.543011 11.1139 0.613588 13.3619C1.11293 14.33 2.86422 15.4348 4.50288 16.2005C6.1475 16.9663 7.6372 17.4366 7.6372 17.4366L8.00664 17.5515L8.00068 17.9125C7.96493 20.0128 7.88747 21.949 7.8398 24H12.0586C12.0467 23.5789 10.4259 23.0757 9.31757 22.6983L9.401 22.3318C9.80023 20.5214 9.99091 18.3336 10.1399 16.2881C9.76448 16.2552 9.39504 16.1568 9.04943 15.9982C8.29862 15.6591 7.64912 15.0465 7.22604 14.2479C7.19029 14.1768 7.15454 14.1003 7.11878 14.0292C6.51695 13.8706 5.98662 13.6791 5.51587 13.4385C4.27049 12.804 3.46605 11.8304 2.80463 10.4521L2.58475 9.98724L3.09661 9.80128C4.03214 9.45123 4.59226 9.18323 5.05109 8.70191C5.50396 8.21513 5.89128 7.45488 6.32031 6.0711L6.39181 5.85779L13.4172 2.77302L19.4952 6.70556C19.3522 7.13765 19.1734 7.5588 19.2806 7.97448C19.9957 8.35187 21.4139 8.72379 22.6235 8.96445C23.1539 9.06837 23.6127 9.14494 24 9.2051C23.7378 8.65816 23.3565 8.23154 22.8619 7.82133C22.1647 7.25251 21.2411 6.73838 20.2102 6.11486L20.1566 6.08204L20.1089 6.03282C18.0055 3.87238 16.1821 1.6206 14.0608 0ZM13.7449 4.19508C14.752 5.38742 15.8424 6.62352 16.4741 8.05652L16.5813 8.29718C16.3489 8.65816 16.0748 8.95351 16.0033 9.35278C16.8673 9.84503 18.22 10.2334 19.3641 10.474C19.811 10.567 20.2102 10.6381 20.5499 10.6928C20.3651 10.4412 20.1268 10.1623 19.8289 9.88879C19.2151 9.31449 18.4166 8.7402 17.6777 8.29171L17.4513 8.16044L17.4334 7.91431C17.3858 7.30173 17.1712 6.74932 16.8733 6.21878L13.7449 4.19508ZM9.31161 10.8405C9.10306 10.8405 8.90046 10.8842 8.71574 10.9663C8.29862 11.1522 8.0126 11.5296 7.89938 12.0438C7.78617 12.5634 7.86363 13.2033 8.1854 13.8159C8.51314 14.4339 9.01368 14.8824 9.53209 15.1231C10.0445 15.3528 10.5391 15.3801 10.9622 15.1942C11.3793 15.0082 11.6653 14.6308 11.7845 14.1167C11.8977 13.5971 11.8143 12.9572 11.4925 12.3391C11.1648 11.7265 10.6643 11.2726 10.1518 11.0374C9.86578 10.9061 9.57976 10.8405 9.31161 10.8405Z" fill="white"/>
</g>
<defs>
<clipPath id="clip0_957_975">
<rect width="24" height="24" fill="white"/>
</clipPath>
</defs>
</svg>
