<svg width="24" height="24" viewBox="0 0 24 24" fill="none" xmlns="http://www.w3.org/2000/svg">
<path d="M12.1388 1.36593C11.9884 1.36889 11.8257 1.42022 11.6559 1.52531C11.3841 1.69331 11.1182 2.00062 10.9588 2.40257C10.7994 2.80453 10.7822 3.21051 10.8648 3.51914C10.9475 3.82781 11.1108 4.02375 11.3256 4.10897C11.5404 4.19414 11.7937 4.16357 12.0655 3.99553C12.3372 3.82743 12.603 3.52008 12.7625 3.11817C12.9219 2.71631 12.9391 2.31028 12.8565 2.00161C12.7739 1.69298 12.6104 1.49704 12.3956 1.41192C12.3151 1.3799 12.2292 1.3642 12.1388 1.36598V1.36593ZM16.0495 3.054C15.636 3.68386 15.2271 4.34667 14.3495 5.17275L14.2738 5.244L14.1736 5.27193C13.744 5.39165 13.283 5.44537 12.8206 5.48193C12.7953 5.75484 12.7381 6.01959 12.657 6.27628C13.3514 6.28504 14.0082 6.23981 14.5928 6.05972C15.4487 5.25403 16.3095 4.40151 16.6874 3.4019L16.0495 3.054ZM9.80883 4.53431C9.80077 4.53431 9.79252 4.53454 9.78413 4.53525C9.72563 4.54073 9.65072 4.57392 9.54872 4.6349C8.991 5.211 8.89214 6.19097 9.50808 7.31062C9.77667 7.79906 10.3562 8.16736 11.0859 8.41593C11.703 8.62617 12.4049 8.74467 13.0456 8.81484L13.2195 8.1847C12.927 8.09995 12.5629 8.01361 12.1816 7.89961C11.6279 7.73414 11.0296 7.50412 10.5713 7.03561L10.5552 7.0192L10.541 7.00101C10.3044 6.69961 10.2805 6.35217 10.2785 5.94651C10.2767 5.61628 10.3166 5.23148 10.3732 4.82043C10.2164 4.71717 10.0798 4.62309 9.97988 4.58193C9.91448 4.55498 9.86527 4.53468 9.80878 4.53422L9.80883 4.53431ZM11.1795 5.1285C11.1418 5.44036 11.121 5.71786 11.1221 5.94225C11.1237 6.25711 11.1936 6.44915 11.2013 6.46772C11.2945 6.55847 11.403 6.63975 11.5233 6.71334C11.736 6.31397 11.8997 5.91834 11.9622 5.53068L11.1796 5.1285H11.1795ZM20.6931 6.83943C18.8791 6.85851 16.1111 8.03601 14.7254 9.03084L15.7534 10.2807C16.8353 9.10148 18.1285 8.29875 19.4232 7.97222C20.7367 7.6409 22.0693 7.81987 23.0949 8.60958C23.1786 8.5252 23.2123 8.4427 23.2212 8.35495C23.2355 8.21386 23.1744 8.00592 22.9932 7.77918C22.6306 7.32567 21.8238 6.87253 20.8656 6.84131C20.8092 6.83943 20.7517 6.83887 20.6931 6.83943H20.6931ZM8.54494 7.24884C8.23706 8.01712 8.06644 8.81212 8.17908 9.49336C8.28516 10.1076 8.56088 10.3118 9.02869 10.5218C9.49697 10.7319 10.1446 10.8554 10.7587 11.1797L11.0618 11.3399L10.967 11.6694C10.7012 12.5938 10.2803 13.4871 9.63989 14.3137C10.0458 14.8222 10.7656 15.2488 11.5543 15.6738L11.842 15.1632L11.0248 13.8001L11.2188 13.5698C11.7245 12.9696 12.008 11.7472 12.1977 10.9563C11.8371 10.5954 10.9888 10.2026 10.1913 9.61804L9.89316 9.39961L10.0705 9.07537C10.0949 9.03075 10.121 8.98603 10.1465 8.94131C9.57516 8.66147 9.07491 8.27395 8.76881 7.7174C8.68336 7.56211 8.60911 7.40559 8.54484 7.24889L8.54494 7.24884ZM20.7388 8.65143C20.3831 8.64707 20.0114 8.694 19.6295 8.79032C18.4075 9.09857 17.1092 9.93154 16.0677 11.1986L15.7418 11.595L14.179 9.69473C14.096 9.70823 14.0184 9.72051 13.9348 9.7342C14.3992 10.4894 14.7293 11.1953 15.1391 11.6508C15.407 11.9486 15.6896 12.1469 16.0944 12.2481C16.4706 12.3421 16.9691 12.3467 17.6536 12.1953C17.5273 11.8271 17.5477 11.4451 17.6387 11.1136C17.7569 10.6837 17.9706 10.3036 18.144 9.96356L18.8957 10.3472C18.7941 10.5461 18.6931 10.7406 18.6092 10.9249C18.8483 10.9121 19.2233 10.8899 19.5753 10.8665C19.9964 10.8383 20.2475 10.8204 20.39 10.8104C20.4698 10.643 20.5569 10.4954 20.6668 10.3652C20.8314 10.1697 21.0739 10.0191 21.335 9.98512C21.4003 9.97668 21.4646 9.97307 21.5286 9.97415C21.8474 9.9795 22.1578 10.1003 22.5267 10.2876C22.6142 10.0012 22.7006 9.7184 22.7864 9.4417C22.2216 8.91764 21.5187 8.66114 20.7388 8.65158V8.65143ZM13.0275 9.88406C12.819 9.91889 12.6079 9.95484 12.3971 9.99047C12.6325 10.1666 12.844 10.367 13.0088 10.6136L13.1122 10.7681L13.0677 10.9487C12.9104 11.5889 12.6996 12.9104 12.0458 13.862L12.818 15.1501L12.1241 16.381C12.4494 16.2967 12.7587 16.182 13.0432 16.0319L13.5588 15.7601L13.656 16.3348C13.9363 17.9923 13.0419 19.5448 12.6025 20.9892C12.9076 21.4134 13.1766 21.6914 13.4123 21.9449C13.6043 22.1514 13.7875 22.367 13.9117 22.6331H15.2361C15.1488 22.1711 14.9911 21.9067 14.4001 21.3792L14.1387 21.1458L14.3201 20.846C15.0367 19.6625 15.4874 16.9591 15.6759 15.6213L15.7191 15.3154L16.0239 15.2642C16.5045 15.1836 16.8129 14.9896 17.0627 14.7098C17.3126 14.43 17.4955 14.05 17.6373 13.6181C17.6999 13.4275 17.7521 13.2286 17.8004 13.0266C17.0427 13.1903 16.4199 13.1991 15.89 13.0666C15.3106 12.9219 14.8608 12.6029 14.5119 12.2152C13.905 11.5407 13.5439 10.6808 13.0276 9.88411L13.0275 9.88406ZM7.9492 10.7992C7.29075 10.93 6.66445 11.0603 6.10092 11.1878C5.51058 11.3882 5.13272 11.6944 4.83905 12.1143C4.5428 12.5376 4.34011 13.0892 4.17891 13.7432C3.85781 15.0453 3.70894 16.7309 3.09736 18.4709L2.27869 21.5382C2.46375 21.7135 2.64066 21.8322 2.82792 22.0001C2.99142 22.1468 3.14152 22.3637 3.23011 22.6331H4.32919C4.35699 22.1878 4.20216 21.7034 3.82031 21.3909L3.5775 21.1924L4.80291 18.2415L5.05369 18.2163C6.04931 18.1163 6.95438 16.9924 7.45322 16.329L7.629 16.0955L7.90941 16.1779C8.96878 16.489 10.2114 16.654 11.3466 16.5237C10.3572 16.0041 9.30539 15.4672 8.74945 14.5073L8.60063 14.2503L8.79235 14.0234C9.38203 13.3262 9.77095 12.5765 10.0392 11.7828C9.63084 11.6239 9.1508 11.5014 8.68313 11.2915C8.42494 11.1757 8.16905 11.0151 7.9492 10.7993V10.7992ZM21.467 10.8208C21.4581 10.8206 21.4505 10.8209 21.4439 10.8217C21.3915 10.8286 21.378 10.8304 21.3119 10.9088C21.2485 10.984 21.1612 11.1406 21.0674 11.3675C20.9917 11.6479 21.0644 11.8502 21.2662 12.113C21.3864 12.2695 21.5549 12.4292 21.7425 12.5872C21.9349 12.1156 22.1076 11.6161 22.2698 11.1122C21.8467 10.9053 21.5732 10.823 21.4669 10.8208L21.467 10.8208ZM5.5178 11.4424C5.51686 11.4424 5.5028 11.4459 5.50102 11.4461C5.51836 11.4471 5.52117 11.4421 5.51789 11.4424H5.5178ZM20.2062 11.6688C20.0128 11.6823 19.9289 11.6886 19.6314 11.7084C19.1243 11.7421 18.6329 11.7759 18.4071 11.7786C18.4217 11.877 18.4577 11.972 18.52 12.0722L18.545 12.1123L18.5604 12.1568C18.5898 12.2415 18.6167 12.3209 18.6422 12.3982C18.7589 12.6061 19.108 12.9241 19.5921 13.1733C20.0764 13.4225 20.6708 13.6208 21.1994 13.7209C21.2619 13.6119 21.3224 13.4993 21.3811 13.3838C21.1063 13.1675 20.8244 12.923 20.597 12.6269C20.3936 12.362 20.2375 12.0307 20.2062 11.6688ZM3.91388 12.0112C3.6473 12.1288 3.38489 12.2533 3.15853 12.3741C2.871 12.5275 2.66011 12.6806 2.57869 12.7505C2.36513 13.4906 2.27306 14.1608 2.0265 14.8544C1.80525 15.4767 1.44117 16.1003 0.776814 16.7346C1.32169 17.2033 1.86591 17.4944 2.53322 17.4525C2.91769 16.0828 3.06666 14.73 3.35963 13.5412C3.495 12.9923 3.66295 12.4752 3.91388 12.0112ZM18.9331 13.7742C18.9436 14.0434 18.9268 14.3306 18.8888 14.6933C18.8865 15.015 19.0597 15.2244 19.3223 15.2891C19.5859 15.3542 20.0058 15.2753 20.4859 14.6975L20.4954 14.686L20.5058 14.6752C20.5674 14.6109 20.6272 14.5429 20.6856 14.4726C20.1804 14.3482 19.6656 14.16 19.2061 13.9237C19.1128 13.8756 19.0221 13.8255 18.933 13.7741L18.9331 13.7742ZM17.6458 15.3219C17.3476 15.6368 16.9513 15.8814 16.47 16.0183C16.4696 16.0219 16.4688 16.0263 16.4683 16.0299L17.1872 16.8363L16.781 18.0389L16.0999 18.1897C16.02 18.5679 15.9275 18.952 15.821 19.3277C15.8408 19.3314 15.8609 19.3357 15.8805 19.3392C16.37 19.4279 16.7792 19.429 17.1422 19.2603C17.9632 18.3762 18.4602 17.7807 18.6398 16.7553C18.5522 16.3848 18.1651 15.8174 17.718 15.3894C17.694 15.3665 17.6699 15.3441 17.6458 15.3219L17.6458 15.3219ZM7.75547 17.3216C7.50549 17.6399 7.19236 18.0017 6.81047 18.3136C7.57486 19.7876 8.43084 21.2617 9.50484 22.6342H10.7589C9.40139 20.9664 8.51639 19.1129 7.75547 17.3216V17.3216Z" fill="white"/>
</svg>
