<svg width="24" height="24" viewBox="0 0 24 24" fill="none" xmlns="http://www.w3.org/2000/svg">
<path d="M14.9817 0.96814C15.5979 2.52036 15.5978 2.52041 14.7258 3.9447C16.278 3.32853 16.2781 3.32848 17.7023 4.2005C17.0862 2.64828 17.0861 2.64833 17.9581 1.22403C16.4059 1.84025 16.406 1.8402 14.9817 0.96814ZM5.298 1.78222C4.7445 2.76847 4.7445 2.76847 3.62344 2.91739C4.60969 3.47094 4.60969 3.47089 4.75861 4.592C5.31211 3.60575 5.31211 3.60575 6.43317 3.45683C5.44692 2.90333 5.44692 2.90333 5.298 1.78222ZM8.88628 4.41584C8.84166 6.78716 8.84175 6.78716 6.91795 8.17428C9.28922 8.21881 9.28927 8.21881 10.6764 10.1426C10.7209 7.77125 10.7209 7.77125 12.6447 6.38412C10.2734 6.33959 10.2734 6.33959 8.88623 4.41584H8.88628ZM17.8477 7.03545C17.8455 8.16641 17.8455 8.16631 16.9394 8.84314C18.0704 8.84534 18.0704 8.8453 18.7472 9.75134C18.7494 8.62044 18.7493 8.62048 19.6554 7.94366C18.5245 7.94145 18.5245 7.9415 17.8477 7.03545ZM9.21867 10.9673C9.16284 10.9685 9.10805 10.9706 9.05498 10.9736C8.18353 11.0235 7.09242 11.3681 5.42475 12.0309L3.56306 20.3241C7.24214 19.3522 9.79603 19.2972 11.5782 20.1078V11.6114C10.7309 11.1983 10.0881 10.9833 9.38883 10.9675C9.33213 10.9663 9.27542 10.9663 9.21872 10.9674L9.21867 10.9673ZM14.9696 11.5026C14.8329 11.5014 14.6972 11.5032 14.5705 11.5072C13.97 11.5268 13.275 11.6111 12.4217 11.7192V20.0224C14.4638 19.6556 17.4303 19.8255 20.4488 20.3771L18.5841 12.071C16.9011 11.6786 15.9315 11.5127 14.9696 11.5027V11.5026ZM15.0769 12.2972C15.9623 12.3067 16.8043 12.4269 17.5944 12.5325L17.8024 13.307C16.6877 13.1312 14.7102 13.077 13.468 13.2611L13.4382 12.4265C13.9987 12.3255 14.5456 12.2915 15.0769 12.2972ZM3.33548 12.5155L2.83781 14.672H3.96722L4.45125 12.5155H3.33548ZM19.5487 12.5155L21.4116 20.8138L21.5165 21.2813L22.5755 21.2742L20.6604 12.5155H19.5487ZM15.8522 15.2258C16.6488 15.227 17.4305 15.2629 18.156 15.33L18.3211 16.1351C16.7909 15.9907 14.919 15.9996 13.4932 16.1351L13.46 15.33C14.2444 15.2582 15.0556 15.2247 15.8522 15.2258ZM2.64319 15.5155L2.31862 16.922H3.46209L3.7778 15.5155H2.64319ZM15.5065 16.7926C15.7248 16.7936 15.9512 16.7966 16.1963 16.8021L16.3161 17.6223C15.38 17.6002 14.1076 17.6486 13.5164 17.6715L13.4835 16.8285C14.2712 16.8054 14.8518 16.7897 15.5065 16.7926ZM17.4507 16.8135C17.8383 16.8155 18.2334 16.8292 18.5814 16.8168L18.7023 17.6483C18.2967 17.6337 17.5365 17.6094 17.1993 17.6248L17.0677 16.817C17.1954 16.8138 17.3231 16.8126 17.4507 16.8135ZM2.124 17.7655L1.28095 21.4184L2.45447 21.4104L3.27267 17.7655H2.124ZM16.3348 18.3209C17.2539 18.3204 18.147 18.3572 18.9809 18.4415L19.1213 19.4158C17.5133 19.2169 15.1015 19.055 13.5385 19.2638L13.5319 18.4237C14.4704 18.359 15.4156 18.3214 16.3348 18.3209ZM8.52516 20.3857C7.11366 20.39 5.34159 20.6787 3.11541 21.312L2.77697 21.4082L11.5782 21.3487V21.0512C10.8171 20.6196 9.82411 20.3819 8.5252 20.3857H8.52516ZM14.8256 20.6751C13.9055 20.6783 13.086 20.7426 12.4217 20.8712V21.3429L20.7465 21.2865C18.6689 20.8818 16.5682 20.6692 14.8257 20.6751H14.8256ZM1.21875 22.2656V23.1094H22.7812V22.2656H1.21875Z" fill="white"/>
</svg>
