<svg width="24" height="24" viewBox="0 0 24 24" fill="none" xmlns="http://www.w3.org/2000/svg">
<g clip-path="url(#clip0_957_1109)">
<path d="M7.77684 0.876009C0.730919 2.77876 -1.97752 9.30704 4.34625 11.502H4.29492C4.32468 11.506 4.35464 11.5107 4.38426 11.5151C4.80543 11.6593 5.26692 11.7838 5.76858 11.8873C8.12625 12.8133 9.83156 15.0572 9.96984 17.25C8.39887 18.3326 7.18219 20.1958 7.18219 20.1958L8.41406 22.0092L6.48187 23.1094H10.3242C8.42929 21.214 9.77297 19.0825 12.0176 19.0825C14.2929 19.0825 15.4837 21.3378 13.7124 23.1094H17.5152L15.6226 22.0092L16.8546 20.1958C16.8546 20.1958 15.6182 18.3021 14.0289 17.2237C14.1791 15.0392 15.8804 12.8096 18.2287 11.8872C18.7305 11.7838 19.1917 11.6594 19.6129 11.5151C19.6425 11.5107 19.6725 11.506 19.7023 11.502H19.6496C25.9743 9.30732 23.2666 2.77885 16.2203 0.875916C14.3115 2.72138 16.5269 5.64231 18.2653 3.54203C19.995 6.78015 18.6686 9.52267 14.8772 7.45168C14.3203 8.59974 13.2734 9.39109 12.0324 9.39109C10.7807 9.39109 9.72768 8.58638 9.17447 7.42234C5.34131 9.54953 3.99422 6.79553 5.73211 3.54203C7.4707 5.64226 9.68601 2.72134 7.77708 0.875962L7.77684 0.876009ZM12.0326 2.55976C10.7488 2.55976 9.62653 3.85145 9.62653 5.54148C9.62653 7.2316 10.7488 8.49437 12.0326 8.49437C13.3164 8.49437 14.4386 7.23156 14.4386 5.54152C14.4386 3.85131 13.3164 2.55981 12.0326 2.55981L12.0326 2.55976Z" fill="white"/>
</g>
<defs>
<clipPath id="clip0_957_1109">
<rect width="24" height="24" fill="white"/>
</clipPath>
</defs>
</svg>
