<svg width="24" height="24" viewBox="0 0 24 24" fill="none" xmlns="http://www.w3.org/2000/svg">
<g clip-path="url(#clip0_957_1180)">
<path d="M0.84375 0.84375V10.5494C1.74609 11.4354 3.33141 12.2966 4.82686 12.7962C6.14452 13.2365 7.01372 13.3972 7.96214 13.0464C8.70581 12.7715 9.56395 12.5673 10.139 12.1971C10.714 11.8269 11.0453 11.4011 10.8806 10.3518L10.8789 10.3409L10.8778 10.3299C10.8625 10.1818 10.8429 10.0262 10.8212 9.86742C10.8127 9.86967 10.8046 9.87211 10.7961 9.87427C10.2885 10.0047 9.56391 10.0749 8.6512 9.89095C8.58792 9.92986 8.52394 9.96783 8.45869 10.0039L8.08945 10.2081L7.68117 9.46978L8.05027 9.26559C8.96527 8.75953 9.74166 7.78692 10.2091 7.04212C10.1921 6.98353 10.1742 6.92447 10.1566 6.86564C9.55406 7.28264 8.70216 7.48327 7.71098 7.09744L7.31784 6.94439L7.62394 6.15811L8.01703 6.31116C8.90812 6.65803 9.41709 6.42848 9.85153 6.03281C10.2005 5.715 10.4513 5.26838 10.617 4.92094C9.38259 3.48047 8.20172 2.14767 7.03463 0.84375H0.84375ZM9.47334 0.84375C9.93661 1.50516 10.5756 2.23172 11.3457 2.95172C11.4545 2.91291 11.5666 2.87405 11.6844 2.83631C12.2523 2.65411 12.8975 2.472 13.5073 2.49703C13.7105 2.50533 13.9098 2.53669 14.1009 2.59875L14.5021 2.72906L14.2417 3.53147L13.8405 3.4013C13.4792 3.28411 12.6387 3.4163 11.9421 3.6397C11.5268 3.77292 11.1709 3.91655 10.9504 4.01114C11.111 4.19761 11.2723 4.38544 11.4349 4.57575L11.606 4.77591L11.5013 5.0175C11.4439 5.14978 11.3653 5.32763 11.262 5.5253C11.7739 6.15117 12.4959 6.79439 12.9978 7.15861C13.8134 7.75055 14.9836 8.4615 15.8986 8.65383C16.3561 8.75002 16.7202 8.71875 16.9814 8.56027C17.2426 8.40173 17.4701 8.09283 17.5842 7.42856L17.6557 7.01269L18.4872 7.15566L18.4157 7.57134C18.4139 7.5818 18.4117 7.59178 18.4098 7.60214C19.9049 8.24916 21.3431 8.65003 22.509 8.67183C22.7364 8.67605 22.9521 8.66597 23.1562 8.64216V4.99828C22.7655 5.31178 22.2684 5.68322 21.6245 6.12853L21.1445 5.43464C22.1273 4.75481 22.74 4.26469 23.1562 3.88856V0.84375H9.47334ZM2.90006 0.90975C3.41864 0.936609 8.46028 3.5842 7.04991 3.09647C6.97552 3.07078 6.59869 3.01903 6.08442 2.97347C6.22458 3.23058 6.31144 3.51609 6.33769 3.81066C6.37031 4.17675 6.30591 4.50056 6.14817 4.74487C5.99044 4.98909 5.71017 5.16455 5.34764 5.10844C4.98511 5.05238 4.66547 4.78416 4.45922 4.48359C4.25297 4.18313 4.12814 3.83002 4.09547 3.46397C4.07705 3.25664 4.08975 3.06291 4.13287 2.88952C3.06684 2.89955 2.07206 3.02498 1.87209 3.41803L2.86453 0.915469C2.87147 0.910781 2.88347 0.908906 2.90016 0.90975H2.90006ZM5.16145 3.01931C5.13863 3.0158 5.09077 3.02016 5.02959 3.11494C4.96842 3.20963 4.92309 3.384 4.94194 3.5948C4.96069 3.80559 5.03873 3.99914 5.11875 4.11572C5.19872 4.2323 5.24869 4.25189 5.27156 4.25541C5.29453 4.25897 5.34244 4.25447 5.40361 4.15978C5.46478 4.065 5.51011 3.89072 5.49127 3.67978C5.47252 3.46898 5.39447 3.27558 5.31445 3.159C5.23444 3.04242 5.18437 3.02283 5.16145 3.01931ZM14.0224 4.14909C14.0494 4.14956 14.0765 4.1505 14.1038 4.15209C14.9756 4.20131 15.8783 4.7355 16.8055 5.70905L16.1945 6.29095C15.3526 5.40698 14.6037 5.02533 14.0562 4.99448C13.5087 4.96355 13.0899 5.21358 12.723 5.86134L11.989 5.44556C12.4484 4.63439 13.1841 4.1347 14.0223 4.149L14.0224 4.14909ZM10.4952 8.13272C10.2409 8.47678 9.94083 8.8305 9.59658 9.15713C10.0061 9.17063 10.3357 9.12141 10.5862 9.05705C10.6219 9.04786 10.6532 9.03848 10.6853 9.02911C10.6313 8.74069 10.5675 8.44055 10.4952 8.13272ZM18.16 8.41692C18.0442 8.66428 17.8992 8.87278 17.7276 9.0405C19.2161 10.1989 20.5569 11.6055 21.3802 13.3172L21.4222 13.4043C22.8293 15.2671 23.2784 17.7959 22.9163 19.9866L22.8963 20.1077L22.8143 20.1991C21.5106 21.6545 19.3538 22.4154 17.4197 22.7115C16.4526 22.8595 15.54 22.8879 14.796 22.8029C14.052 22.7178 13.4421 22.5822 13.1125 22.0747L13.064 21.9999L13.0499 21.912C12.9635 21.3756 12.9275 20.8588 12.8658 20.3534C12.0645 21.2518 11.4768 22.1728 11.1682 23.1562H23.1562V9.49111C22.9406 9.51188 22.7193 9.5197 22.4933 9.51548C21.1786 9.49087 19.6862 9.07345 18.1599 8.41692H18.16ZM0.84375 11.6681V14.0279C1.27139 14.3467 2.41303 15.1969 3.78656 16.2074C4.61648 16.818 5.45236 17.4286 6.09019 17.8848C6.37828 18.0909 6.60863 18.2521 6.79519 18.3797C6.81488 18.3231 6.82847 18.2926 6.85017 18.2264C6.97111 17.8572 7.11862 17.3529 7.26023 16.8486C7.47998 16.0656 7.64836 15.4232 7.72959 15.111C7.67494 14.7795 7.656 14.4108 7.67587 14.0018C6.68672 14.1991 5.70511 13.9793 4.55944 13.5965C3.23597 13.1542 1.87186 12.4763 0.84375 11.668V11.6681ZM19.9972 13.1653C19.971 13.1645 19.9463 13.164 19.9268 13.1655C19.6991 13.1829 19.636 13.2627 19.5443 13.3649C19.4832 13.433 19.4241 13.5275 19.3185 13.6444C19.2129 13.7612 19.011 13.9105 18.769 13.9214C18.5509 13.9312 18.3558 13.8364 18.237 13.7503C18.1182 13.6642 18.0451 13.5889 17.981 13.5396C17.8528 13.4408 17.8071 13.382 17.4541 13.4627C17.3055 13.4966 17.2676 13.5582 17.181 13.7232C17.1377 13.8057 17.0958 13.9064 17.0344 14.0197C16.973 14.133 16.8894 14.2789 16.7018 14.3812C16.5658 14.4553 16.4236 14.4472 16.3391 14.4293C16.2547 14.4115 16.202 14.3869 16.1537 14.3653C16.0573 14.3222 15.9811 14.2826 15.8937 14.2522C15.719 14.1913 15.5215 14.1481 15.1534 14.292C14.8467 14.4118 14.835 14.4815 14.8028 14.5634C14.7867 14.6043 14.7775 14.6566 14.7457 14.7558C14.714 14.8551 14.6094 15.0641 14.4024 15.1444C14.2255 15.213 14.0437 15.1995 13.9177 15.1727C13.7916 15.1459 13.7006 15.1125 13.6102 15.09C13.4295 15.045 13.2513 15.0138 12.8804 15.1345C12.6643 15.2048 12.4168 15.5116 12.3022 15.9248C12.1897 16.3302 12.2282 16.7885 12.3564 17.019C13.7682 18.6143 13.6694 20.2807 13.8657 21.6474C13.9717 21.7226 14.3306 21.9005 14.8916 21.9645C15.1547 21.9946 15.4532 22.0084 15.7755 22.005C15.8264 20.4003 15.4187 18.3985 14.829 17.0913L15.598 16.7442C16.2482 18.1852 16.6709 20.2081 16.622 21.9601C16.8405 21.9397 17.0646 21.9122 17.2919 21.8775C17.7307 21.8102 18.1806 21.7147 18.6259 21.5912C18.3197 19.8835 18.0627 18.0312 17.1461 16.4505L17.8759 16.0272C18.8775 17.7543 19.1453 19.6764 19.4365 21.3325C19.8301 21.1895 20.2118 21.0237 20.5702 20.8353C20.4804 18.8315 20.238 17.1119 19.4303 15.86L20.1392 15.4025C21.0195 16.767 21.2833 18.4661 21.3897 20.3324C21.6526 20.1432 21.8923 19.9381 22.1014 19.7176C22.4357 17.4498 21.7852 14.7773 20.0756 13.1681C20.0508 13.1676 20.0233 13.1662 19.9971 13.1653L19.9972 13.1653ZM0.84375 15.0797V23.1562H10.2912C10.6567 21.8041 11.4713 20.5868 12.555 19.4475L9.52791 17.6087L9.52486 17.6068C9.06375 17.3159 8.59627 16.9628 8.24611 16.4476C8.19033 16.6522 8.13267 16.8623 8.07258 17.0767C7.92933 17.5869 7.78027 18.0973 7.65197 18.4891C7.58784 18.685 7.52986 18.8497 7.47445 18.9813C7.4468 19.047 7.42177 19.103 7.38375 19.1655C7.36472 19.1968 7.34438 19.23 7.29938 19.2759C7.25423 19.3217 7.17197 19.4137 6.97814 19.4137C6.86203 19.4137 6.83878 19.392 6.81127 19.3814C6.7837 19.3706 6.76603 19.3617 6.74892 19.3529C6.7147 19.3353 6.68489 19.3177 6.65058 19.2967C6.58195 19.2546 6.4987 19.1998 6.39722 19.131C6.19425 18.9934 5.92125 18.8013 5.59931 18.571C4.95548 18.1105 4.11806 17.4986 3.2865 16.8869C2.31877 16.175 1.47684 15.5503 0.84375 15.0797Z" fill="white"/>
</g>
<defs>
<clipPath id="clip0_957_1180">
<rect width="24" height="24" fill="white"/>
</clipPath>
</defs>
</svg>
