<svg width="24" height="24" viewBox="0 0 24 24" fill="none" xmlns="http://www.w3.org/2000/svg">
<path d="M12.3413 0.865758C12.2867 0.867071 12.2313 0.871571 12.1772 0.871571C10.6377 0.871571 9.38381 2.4618 9.38381 4.43112C9.38381 5.42834 9.71569 6.32796 10.2319 6.97559C7.03823 7.47091 6.34823 11.9172 7.10747 15.9551H8.21198L8.16361 11.0171L9.03961 11.0084L9.0982 16.9468L9.50836 23.1754H11.7056V14.9443H12.5815V23.1753H14.6587L15.1978 15.9551H15.1992L15.249 11.0083L16.125 11.0171L16.0751 15.9551H17.2251C18.0858 11.8085 17.0036 7.56682 14.08 7.0166C14.6194 6.36598 14.9692 5.4536 14.9692 4.43116C14.9692 2.5849 13.8716 1.05438 12.4657 0.871664C12.4423 0.868149 12.4194 0.866508 12.3954 0.865805C12.3774 0.865242 12.3594 0.865336 12.3412 0.865805L12.3413 0.865758ZM12.1201 7.31979C12.6583 7.31979 13.0942 7.82056 13.0942 8.43893C13.0942 8.84815 12.9033 9.20604 12.6181 9.40137H14.4419V10.2774H12.5566V11.3716L13.708 13.689L12.9228 14.0787L12.1186 12.4601L11.3145 14.0787L10.5293 13.689L11.6807 11.3717V10.2773H9.79542V9.40132H11.6221C11.337 9.20599 11.146 8.8481 11.146 8.43898C11.146 7.8206 11.5821 7.31979 12.1202 7.31979H12.1201Z" fill="white"/>
</svg>
