<svg width="24" height="24" viewBox="0 0 24 24" fill="none" xmlns="http://www.w3.org/2000/svg">
<path d="M11.9986 1.06641C9.91711 1.06641 8.00953 2.25862 6.59625 4.25977C5.18287 6.26086 4.29202 9.06023 4.29202 12.1612C4.29202 15.262 5.18287 18.0613 6.5962 20.0625C8.00948 22.0636 9.91706 23.2559 11.9985 23.2559C14.0799 23.2559 15.9861 22.0636 17.3994 20.0625C18.8127 18.0614 19.705 15.262 19.705 12.1611C19.705 9.06024 18.8127 6.26095 17.3993 4.25977C15.9861 2.25867 14.0799 1.06641 11.9985 1.06641H11.9986ZM15.6299 6.51858C16.1437 8.36513 16.3717 10.2105 16.4194 12.0571C17.214 11.9154 18.003 11.7406 18.7808 11.5209C18.505 12.2114 17.5599 12.7534 16.4283 13.0224C16.4151 15.0882 16.2005 17.1544 15.9316 19.2202C15.5878 17.2135 15.2932 15.2064 15.1772 13.1997C14.146 13.2509 13.103 13.0694 12.3502 12.5756C13.2779 12.4865 14.2093 12.3894 15.1377 12.2592C15.0835 10.3453 15.2087 8.43248 15.6299 6.51858ZM7.36959 10.9951C7.45786 10.994 7.54537 10.9948 7.63331 10.998C7.31198 11.2453 7.10456 11.6336 7.10456 12.0703C7.10456 12.817 7.70972 13.4224 8.45653 13.4224C9.20334 13.4224 9.80859 12.8171 9.80859 12.0703C9.80859 11.854 9.7583 11.6496 9.66797 11.4683C10.2928 11.7336 10.909 12.1064 11.5166 12.5757C9.77911 15.4893 5.47926 13.7507 5.08594 11.521C5.86181 11.1739 6.62189 11.0049 7.36969 10.9951H7.36959Z" fill="white"/>
</svg>
