<svg width="24" height="24" viewBox="0 0 24 24" fill="none" xmlns="http://www.w3.org/2000/svg">
<path d="M15.6459 0.946336C13.7723 0.946336 11.8978 1.6594 10.4707 3.08646C7.72069 5.83648 7.62089 10.2452 10.1704 13.1163L9.43064 13.8545L10.0517 14.4756L10.79 13.7359C13.661 16.2854 18.0697 16.1856 20.8198 13.4356C23.6738 10.5815 23.6739 5.94054 20.8198 3.08651C19.3928 1.6594 17.5197 0.946336 15.6459 0.946336ZM15.6459 1.81643C17.2936 1.81643 18.9405 2.44643 20.2002 3.7061C22.7195 6.2254 22.7195 10.2967 20.2002 12.8159C17.7849 15.2312 13.9443 15.3304 11.4112 13.1148L11.4214 13.1046C11.3112 13.0085 11.2026 12.9091 11.0977 12.8043C10.9942 12.7009 10.8967 12.5935 10.8017 12.4849L10.7915 12.4953C8.57573 9.96213 8.67502 6.12138 11.0903 3.7061C12.35 2.44643 13.9983 1.81643 15.6459 1.81643ZM15.6459 2.69829C14.2252 2.69829 12.8039 3.24204 11.7173 4.3286C9.54413 6.50182 9.54413 10.0114 11.7173 12.1846C12.1927 12.66 12.7313 13.0319 13.3066 13.2994C12.139 12.4046 11.3862 10.9962 11.3862 9.41154C11.3862 8.69327 11.5405 8.01054 11.8184 7.39591C11.6231 8.35615 11.839 9.31216 12.4966 9.96968C13.649 11.1221 15.719 10.9221 17.1196 9.52146C18.5203 8.12084 18.7202 6.05084 17.5678 4.89841C17.4564 4.78704 17.3361 4.68874 17.2089 4.60249C19.3244 5.00787 20.9568 6.77491 21.1582 8.95605C21.3663 7.31215 20.8385 5.5939 19.5732 4.32855C18.4866 3.24199 17.0668 2.69824 15.646 2.69824L15.6459 2.69829ZM8.29252 13.9541L1.97316 20.2735L3.59325 21.8936L9.91266 15.5742L8.29247 13.9541L8.29252 13.9541ZM1.875 21.4131L1.125 22.1616L1.74469 22.7813L2.49319 22.0313L1.875 21.4131Z" fill="white"/>
</svg>
