<svg width="24" height="24" viewBox="0 0 24 24" fill="none" xmlns="http://www.w3.org/2000/svg">
<path d="M2.36231 1.27258C2.36231 1.27258 2.54442 3.94666 3.33698 6.04141C2.10708 6.41271 0.937874 7.08485 0.937874 7.08485C0.937874 7.08485 2.09287 8.75472 3.32812 9.59374C4.29741 9.33757 5.26669 9.13858 6.22875 8.98591C6.23948 8.95647 7.92642 8.86451 9.10641 8.45932C9.50264 8.3254 4.73119 3.67971 4.93284 3.46821C5.13642 3.25399 10.4059 7.50335 10.5255 7.26682C11.1717 5.99941 10.6469 4.44911 9.14381 3.02641C7.36411 1.33774 2.36231 1.27258 2.36231 1.27258ZM20.5774 1.55641C19.8526 1.55641 19.1942 1.87043 18.7494 2.36688C18.0321 3.1676 18.1869 4.72113 17.7729 5.44071C17.2107 6.31811 14.251 8.6164 14.251 8.6164C14.251 8.6164 16.2664 8.7003 17.964 9.43216C18.3799 8.61907 18.4977 8.25672 19.5187 7.41597C19.9847 7.03132 20.7829 6.67226 21.4717 6.35294C22.4282 5.90951 23.048 5.08788 23.0622 4.04032C23.0622 2.66941 21.9483 1.55641 20.5774 1.55641ZM11.0952 9.67962C7.95187 9.66443 4.70972 10.2145 1.47689 11.3752V15.6835C1.47689 19.5749 4.62942 22.7275 8.52089 22.7275H13.0765C16.9644 22.7275 20.1204 19.575 20.1204 15.6835V11.3752C17.283 10.2751 14.2385 9.6948 11.0952 9.67962Z" fill="white"/>
</svg>
