<svg width="24" height="24" viewBox="0 0 24 24" fill="none" xmlns="http://www.w3.org/2000/svg">
<g clip-path="url(#clip0_957_1138)">
<path d="M7.965 0.733765C7.47225 1.51644 6.91538 2.33023 6.01088 3.09969C6.03244 3.12064 6.05466 3.14141 6.07673 3.16231L7.18064 3.14328L7.01531 3.64484C6.99164 3.71656 6.96539 3.78772 6.93666 3.85822C7.06805 3.94939 7.20595 4.03986 7.35253 4.12953L8.52684 4.84812L6.37106 4.81095C6.27947 4.92692 6.18075 5.04064 6.07552 5.15197C6.48802 5.69183 7.10888 6.21664 7.88841 6.68787L7.30697 6.67076L7.30627 6.93692C7.70611 7.23495 8.14027 7.52042 8.57949 7.80317C9.42839 7.26092 10.0696 6.65473 10.4315 6.03992L7.74309 6.08633L8.91741 5.36773C9.33788 5.11048 9.69202 4.84672 9.99938 4.57709C9.76041 4.32045 9.5775 4.06325 9.4717 3.79475L9.28233 3.31447L10.6765 3.22901C9.61594 2.55045 8.55188 1.79576 7.965 0.733765ZM18.9621 1.35359C18.6557 1.96119 18.3115 2.71372 17.8541 3.44562C18.3663 4.30658 18.9991 5.13298 20.0466 5.90103L21.0037 6.60275L18.5423 6.55189C18.8684 7.12077 19.4768 7.81086 20.1633 8.42909C21.0613 9.23787 22.0818 9.95591 22.6902 10.3001L23.2217 10.6009C23.222 10.4058 23.222 10.2549 23.2224 9.94597C22.4173 9.38637 21.8271 8.73683 21.5198 7.96784L21.327 7.48512L23.3709 7.36419C22.9064 7.15991 22.4453 6.97686 22.0245 6.79887C21.6262 6.63041 21.2638 6.46573 20.9594 6.27247C20.6549 6.07925 20.3921 5.85275 20.2629 5.52514L20.0787 5.05817L21.7698 4.9092C20.6333 3.96111 19.5562 2.62376 18.9621 1.35359ZM3.93877 1.6228C3.35189 2.6848 2.28783 3.43953 1.22738 4.11814L2.62134 4.20355L2.43211 4.68373C2.20805 5.25209 1.64391 5.8145 0.876703 6.41216C0.862875 6.93762 0.858328 7.23997 0.858656 7.24334C0.858891 7.24541 0.867563 7.29491 0.87225 7.38992C0.874031 7.4247 0.874125 7.53884 0.875344 7.5942L1.52353 7.63156L1.52334 7.65734L1.34025 8.11569C1.28494 8.2542 1.22316 8.40022 1.14525 8.54844L1.68548 8.21797C3.43748 7.14594 4.04892 5.96033 4.84463 4.71017L4.8337 5.00858L5.04342 4.92069C4.98356 4.79403 4.93177 4.66512 4.8885 4.53397L4.72313 4.03241L5.96916 4.05397C5.01881 3.2653 4.44544 2.4275 3.93877 1.6227V1.6228ZM12.3309 2.86105C11.8243 3.6658 11.2509 4.50355 10.3006 5.29198L11.5466 5.27052L11.3813 5.77208C11.0693 6.71839 10.3139 7.54817 9.27783 8.25223L10.1176 8.79472L10.9742 8.82697L10.7807 9.31916C10.6727 9.59398 10.5297 9.85353 10.3584 10.0996L10.7679 9.80947C11.6076 9.21462 12.4917 8.52064 13.1961 7.86256C13.666 7.42358 14.0388 6.99444 14.2781 6.64784L11.9092 6.4737L12.6826 5.87497C13.1687 5.4987 13.6657 5.12778 14.1322 4.74162C13.4061 4.21447 12.7479 3.6155 12.3311 2.861L12.3309 2.86105ZM16.6936 2.89292C16.0955 4.14941 14.9955 5.05105 13.923 5.86977L15.3944 5.97786L15.2446 6.43376C15.0336 7.07595 14.4486 7.7187 13.7079 8.41058C13.202 8.88322 12.6183 9.36167 12.0253 9.81336L14.3352 9.97714L14.1824 10.4356C13.654 12.0202 11.9865 13.1039 10.6285 13.9792C11.2607 14.3568 11.9256 14.7029 12.4948 15.0253C15.6982 15.9075 19.4132 15.3522 21.9131 14.2753C21.2948 13.9212 20.7954 13.5935 20.378 13.1969C19.8247 12.6712 19.4371 12.0269 19.1416 11.1259L19.0002 10.6942L21.4363 10.3844C20.8797 9.99955 20.2564 9.52236 19.6613 8.98634C18.7186 8.1373 17.8615 7.20495 17.6027 6.26445L17.4694 5.77967L18.7756 5.80672C17.7831 4.86594 17.2034 3.86211 16.6936 2.89297L16.6936 2.89292ZM5.09906 5.71123C4.59248 6.51598 4.01916 7.35373 3.06877 8.14217L4.3148 8.1208L4.14933 8.62222C3.76308 9.794 2.69742 10.7872 1.26066 11.584L3.74222 11.6773L3.54881 12.1693C3.03084 13.487 2.15381 14.6525 0.687656 15.5248C4.15102 16.5826 8.02706 17.0046 11.5431 15.3574C10.938 15.0267 10.2821 14.6705 9.65259 14.253C8.80556 13.6913 8.03424 13.0467 7.69744 12.204L7.5045 11.7212L9.77325 11.5869C9.21881 11.2295 8.67567 10.8613 8.20027 10.4908C7.43878 9.89726 6.83808 9.36181 6.60558 8.77222L6.4162 8.29189L7.81027 8.20644C6.74995 7.52787 5.68599 6.77319 5.09902 5.71128L5.09906 5.71123ZM3.19969 8.89011L0.902063 8.92967C0.894188 8.93989 0.887063 8.9503 0.879 8.96042C0.866063 9.968 0.858 10.5253 0.855469 10.947C1.94963 10.3349 2.77092 9.61864 3.19969 8.89011ZM8.15316 9.4715C8.30644 9.61062 8.4758 9.75439 8.66152 9.89919C8.82652 10.0278 9.00211 10.1581 9.1837 10.2886C9.4387 10.046 9.65639 9.79433 9.82552 9.53431L8.15311 9.4715H8.15316ZM10.1059 10.4291C10.0182 10.5334 9.9247 10.6347 9.82711 10.7339C10.262 11.0242 10.7155 11.3078 11.1574 11.569L11.9845 12.0578C12.5161 11.6162 12.9752 11.1473 13.2602 10.6528L10.1059 10.4291ZM23.2216 10.9135L20.0162 11.3212C20.2349 11.8579 20.4871 12.247 20.8262 12.5864L20.8163 12.1364C21.6345 12.0898 22.4431 11.9793 23.2257 11.7913C23.2227 11.455 23.2218 11.2092 23.2216 10.9135ZM11.786 12.219L8.6738 12.4032C8.85675 12.6463 9.09966 12.8872 9.38147 13.121C9.68227 13.1812 9.98639 13.2365 10.2934 13.2853C10.7921 12.9515 11.3115 12.5956 11.786 12.219ZM1.48552 12.3428L1.47192 14.0124C1.97564 13.5263 2.34811 12.9825 2.63583 12.3861L1.48552 12.3428ZM20.8893 15.4616C20.2208 15.6761 19.5057 15.8551 18.7621 15.9876L19.0223 22.1835H21.0368L20.8893 15.4616ZM12.366 15.7898C12.2412 15.8556 12.1158 15.9187 11.9902 15.9794L11.9467 21.336H14.4162L14.3025 16.1565C13.6487 16.0838 12.9999 15.9633 12.3659 15.7898H12.366ZM18.0163 16.1035C17.3092 16.1969 16.5828 16.2465 15.8516 16.2439L15.8335 22.7943H18.2973L18.0163 16.1035V16.1035ZM1.45163 16.5322L1.40831 21.8779H3.48328L3.57586 16.9842C2.85577 16.8687 2.1457 16.7147 1.45158 16.5322L1.45163 16.5322ZM9.64163 16.8261C9.099 16.9607 8.55291 17.0575 8.00578 17.1207L8.1893 20.2236H9.73922L9.64153 16.8261L9.64163 16.8261ZM4.32399 17.09L4.20642 23.3037L7.61386 23.1965L7.25836 17.1867C6.27539 17.2471 5.29261 17.2065 4.32399 17.09V17.09Z" fill="white"/>
</g>
<defs>
<clipPath id="clip0_957_1138">
<rect width="24" height="24" fill="white"/>
</clipPath>
</defs>
</svg>
