<svg width="24" height="24" viewBox="0 0 24 24" fill="none" xmlns="http://www.w3.org/2000/svg">
<g clip-path="url(#clip0_957_1153)">
<path d="M12.0967 0.914062C6.59124 0.914062 2.00977 4.90603 1.08839 10.1498L1.06777 10.166L1.08249 10.185C1.01405 10.5817 0.965767 10.9854 0.940361 11.3951C1.16208 11.2076 1.38492 11.0262 1.60833 10.8502L1.61128 10.853C8.47753 5.42016 15.9413 5.59969 22.5805 10.853L22.5819 10.8516C22.8063 11.0278 23.0306 11.2085 23.2529 11.3965C23.2275 10.9859 23.1794 10.5811 23.1107 10.1836L23.124 10.166C23.1177 10.161 23.1113 10.1564 23.1049 10.1513C22.1841 4.90687 17.6026 0.914062 12.0967 0.914062ZM12.0967 1.79006C16.8424 1.79006 20.8315 4.99055 22.0298 9.35302C18.8956 7.16255 15.5509 6.03098 12.183 6.01036C8.80383 5.98955 5.40225 7.08628 2.16492 9.3502C3.36445 4.98933 7.35211 1.79011 12.0966 1.79011L12.0967 1.79006ZM12.1831 7.73878C11.2583 7.73231 10.3312 7.82175 9.40435 8.00831C8.07919 8.88197 7.20703 10.3839 7.20703 12.0938C7.20703 13.8136 8.0896 15.3214 9.42774 16.1924C10.3384 16.3679 11.2514 16.4535 12.1626 16.4487C13.0335 16.4441 13.9039 16.3572 14.77 16.1895C16.1047 15.318 16.9848 13.8112 16.9848 12.0938C16.9848 10.3858 16.1142 8.8853 14.792 8.01122C13.9246 7.83558 13.0545 7.74487 12.183 7.73878H12.1831ZM7.59375 8.49909C5.51447 9.20597 3.44672 10.4104 1.42383 12.1377C3.42699 13.8435 5.51053 15.0325 7.62164 15.7237C6.81539 14.732 6.33108 13.4684 6.33108 12.0938C6.33108 10.7352 6.80442 9.48563 7.59375 8.499V8.49909ZM16.6026 8.50341C17.3895 9.48938 17.8608 10.7372 17.8608 12.0938C17.8608 13.467 17.3777 14.7295 16.5733 15.7207C18.6993 15.0241 20.7829 13.829 22.7681 12.1392C20.7679 10.4317 18.7004 9.21802 16.6025 8.50336L16.6026 8.50341ZM12.0967 9.31786C12.3893 9.31786 12.6712 9.36272 12.936 9.44677C12.5095 9.66417 12.2168 10.1072 12.2168 10.6186C12.2168 11.3448 12.8061 11.9341 13.5322 11.9341C14.0553 11.9341 14.507 11.6279 14.7187 11.1855C14.8173 11.4704 14.871 11.7755 14.871 12.0938C14.871 13.6261 13.629 14.8682 12.0966 14.8682C10.5643 14.8682 9.32227 13.6261 9.32227 12.0938C9.32227 10.5614 10.5644 9.31781 12.0967 9.31781V9.31786ZM23.2471 12.8848C22.9282 13.1534 22.6063 13.4091 22.2818 13.6538C22.2807 13.6607 22.2799 13.6676 22.2788 13.6745C19.0461 16.2637 15.6209 17.5823 12.1788 17.6046C8.73502 17.6269 5.25638 16.3536 1.91456 13.6774C1.91353 13.6705 1.91269 13.6637 1.91166 13.6568C1.58756 13.4123 1.26572 13.1554 0.946361 12.8863C1.35347 18.6858 6.19467 23.272 12.0967 23.272C17.9992 23.272 22.8406 18.685 23.2471 12.8848V12.8848ZM2.21044 15.0045C5.43028 17.3485 8.81583 18.5023 12.1845 18.4805C15.5418 18.4588 18.8668 17.2723 21.9829 15.0045C20.7289 19.2799 16.7807 22.396 12.0966 22.396C7.41286 22.396 3.46486 19.2793 2.21044 15.0045Z" fill="white"/>
</g>
<defs>
<clipPath id="clip0_957_1153">
<rect width="24" height="24" fill="white"/>
</clipPath>
</defs>
</svg>
