<svg width="24" height="24" viewBox="0 0 24 24" fill="none" xmlns="http://www.w3.org/2000/svg">
<path d="M11.7877 0.883301C9.81408 0.883301 7.99912 2.07871 6.65334 4.07811C5.30752 6.07752 4.45312 8.87418 4.45312 11.9721C4.45312 15.0701 5.30752 17.8683 6.65334 19.8677C7.99912 21.867 9.81412 23.0302 11.7876 23.0302C13.7611 23.0302 15.5775 21.867 16.9233 19.8677C18.2692 17.8683 19.1236 15.0702 19.1236 11.9721C19.1236 8.87418 18.2692 6.07752 16.9233 4.07811C15.5775 2.07871 13.7611 0.883301 11.7877 0.883301ZM9.30609 8.46824C9.34861 8.46763 9.39103 8.4674 9.43359 8.46824C9.88758 8.47752 10.3467 8.58768 10.8018 8.77002L10.4737 9.56394C9.00614 8.97594 7.63331 9.46457 6.72366 11.0143L5.95608 10.5498C6.74077 9.21294 7.99064 8.48708 9.30614 8.46829L9.30609 8.46824ZM14.2148 8.52243C15.5303 8.54127 16.7787 9.26708 17.5635 10.604L16.7974 11.0419C15.8877 9.49222 14.5148 9.03013 13.0474 9.61808L12.7192 8.79636C13.1743 8.61402 13.6334 8.53316 14.0874 8.52388C14.13 8.52294 14.1725 8.52182 14.2149 8.52247L14.2148 8.52243ZM11.8213 11.5078C14.3138 11.5078 16.3345 13.8575 16.3345 16.7564C16.3345 19.6551 14.3138 22.0064 11.8212 22.0064C9.32869 22.0064 7.30809 19.6551 7.30809 16.7564C7.30809 13.8575 9.32873 11.5078 11.8213 11.5078ZM10.9058 14.0464L10.9995 14.707L11.5166 18.3998C11.226 18.2853 10.8938 18.2182 10.5483 18.2182C9.55045 18.2182 8.81958 18.77 8.91506 19.4501C9.01069 20.1304 9.89756 20.6806 10.8955 20.6806C11.8935 20.6806 12.6244 20.1304 12.5288 19.4501C12.5288 19.4496 12.5289 19.4492 12.5288 19.4487L12.548 19.4458L12.1144 16.311L13.9835 16.9349L14.5504 17.1431V15.0278L14.2281 14.9516L11.5475 14.2161L10.9059 14.0463L10.9058 14.0464Z" fill="white"/>
</svg>
