<svg width="24" height="24" viewBox="0 0 24 24" fill="none" xmlns="http://www.w3.org/2000/svg">
<path d="M12 1.54688C11.0234 1.54688 10.1719 2.49563 10.1719 3.75C10.1719 5.00437 11.0234 5.95312 12 5.95312C12.9766 5.95312 13.8281 5.00437 13.8281 3.75C13.8281 2.49563 12.9766 1.54688 12 1.54688ZM5.16834 2.57503L4.37194 2.97328C5.07117 4.01142 5.88192 5.17702 6.70444 6.20517C7.6282 7.35989 8.57709 8.3168 9.18867 8.62261L9.42188 8.73923V10.5898C10.6936 10.7589 11.6023 10.8233 12.6035 10.7815C12.5726 10.7585 12.5418 10.7355 12.5121 10.7121C12.2817 10.5302 12.0818 10.3275 11.9262 10.1095C11.651 10.082 11.4304 9.90445 11.2984 9.70402C11.1548 9.48605 11.0842 9.22392 11.0842 8.94173C11.0842 8.65955 11.1548 8.39742 11.2984 8.17936C11.442 7.96139 11.6905 7.76986 12 7.76986C12.3095 7.76986 12.558 7.96134 12.7016 8.17936C12.8452 8.39742 12.9158 8.65955 12.9158 8.94173C12.9158 9.22392 12.8452 9.48605 12.7016 9.70406C12.6988 9.70847 12.6955 9.71273 12.6926 9.71705C12.7826 9.82758 12.8958 9.94008 13.0349 10.0499C13.3294 10.2825 13.725 10.4933 14.1951 10.6433C14.3193 10.6281 14.4466 10.6119 14.5781 10.5945V8.73923L14.8113 8.62261C15.423 8.31675 16.3718 7.3598 17.2956 6.20513C18.1181 5.17697 18.9288 4.01137 19.6281 2.97323L18.8317 2.57498C16.6437 4.75416 14.4277 6.79688 12 6.79688C9.57225 6.79688 7.35623 4.75416 5.16834 2.57503ZM6.53213 11.0092L7.10175 13.8575C11.8388 14.2964 12.1612 14.2964 16.8983 13.8575L17.4676 11.0106C12.3076 11.8285 11.6917 11.8151 6.53217 11.0092L6.53213 11.0092ZM8.37169 14.8218L8.99747 19.8281H15.0026L15.6283 14.8218C12.4521 15.1046 11.548 15.1046 8.37169 14.8218ZM6.42188 20.6719V21.6094H17.5781V20.6719H6.42188ZM0.75 22.4062V23.25H23.25V22.4062H0.75Z" fill="white"/>
</svg>
