<svg width="23" height="24" viewBox="0 0 23 24" fill="none" xmlns="http://www.w3.org/2000/svg">
<path d="M10.05 15C10.05 13.65 10.1708 12.6792 10.4125 12.0875C10.6542 11.4958 11.1667 10.85 11.95 10.15C12.6333 9.55 13.1542 9.02917 13.5125 8.5875C13.8708 8.14583 14.05 7.64167 14.05 7.075C14.05 6.39167 13.8208 5.825 13.3625 5.375C12.9042 4.925 12.2667 4.7 11.45 4.7C10.6 4.7 9.95417 4.95833 9.5125 5.475C9.07083 5.99167 8.75833 6.51667 8.575 7.05L6 5.95C6.35 4.88333 6.99167 3.95833 7.925 3.175C8.85833 2.39167 10.0333 2 11.45 2C13.2 2 14.5458 2.4875 15.4875 3.4625C16.4292 4.4375 16.9 5.60833 16.9 6.975C16.9 7.80833 16.7208 8.52083 16.3625 9.1125C16.0042 9.70417 15.4417 10.375 14.675 11.125C13.8583 11.9083 13.3625 12.5042 13.1875 12.9125C13.0125 13.3208 12.925 14.0167 12.925 15H10.05ZM11.45 21C10.9 21 10.4292 20.8042 10.0375 20.4125C9.64583 20.0208 9.45 19.55 9.45 19C9.45 18.45 9.64583 17.9792 10.0375 17.5875C10.4292 17.1958 10.9 17 11.45 17C12 17 12.4708 17.1958 12.8625 17.5875C13.2542 17.9792 13.45 18.45 13.45 19C13.45 19.55 13.2542 20.0208 12.8625 20.4125C12.4708 20.8042 12 21 11.45 21Z" fill="white"/>
</svg>
