<svg width="24" height="24" viewBox="0 0 24 24" fill="none" xmlns="http://www.w3.org/2000/svg">
<path d="M3.73242 1.03268C2.94989 1.04553 2.27883 1.28253 1.80023 1.76665C0.269201 3.31573 1.29047 6.81157 4.08844 9.5772C5.96306 11.4302 8.38069 11.6877 9.94922 12.23C8.15906 13.8807 6.15825 15.3985 3.83494 16.8837L6.72215 19.7373C8.28155 17.2344 9.91209 15.0774 11.7099 13.147C14.8255 15.2353 17.0092 19.0756 19.0972 22.8486L23.105 18.7939C19.2516 16.7196 15.3903 14.6239 13.2964 11.5429C15.2283 9.70479 17.3614 8.06764 19.7959 6.5112L16.9087 3.65768C15.4805 5.95001 14.006 7.95542 12.3691 9.77787C11.8205 8.21046 11.5131 5.8181 9.63726 3.96387C7.71356 2.06253 5.4539 1.00456 3.73237 1.03278L3.73242 1.03268ZM4.52789 3.23881C5.50945 3.25826 6.91336 3.98928 8.1577 5.21928C9.88898 6.93045 10.6564 8.95906 9.87309 9.75148C9.08981 10.544 7.0515 9.80009 5.32036 8.08892C3.58922 6.37784 2.82023 4.34768 3.60351 3.55521C3.82383 3.33232 4.14375 3.23117 4.52789 3.23881Z" fill="white"/>
</svg>
