<svg width="24" height="24" viewBox="0 0 24 24" fill="none" xmlns="http://www.w3.org/2000/svg">
<g clip-path="url(#clip0_957_1121)">
<path d="M16.5055 1.8886L8.34909 7.4293C6.95713 8.14202 3.34587 8.23192 0.878906 8.11369V15.0483C2.13863 14.4946 3.51989 14.0208 4.88455 13.6465L3.25552 10.7168L3.06544 10.3751L3.36381 10.1222C3.92401 9.64722 4.57512 9.31435 5.29008 9.27741C5.89992 9.24591 6.53197 9.44634 7.12514 9.88566C7.59377 9.56273 8.09022 9.34447 8.62321 9.32103C9.14932 9.29779 9.67629 9.48665 10.1642 9.85493C10.8361 9.31792 11.5714 9.21116 12.1987 9.34065C12.9314 9.492 13.5528 9.85891 14.1007 10.0312L14.6511 10.2041L12.4975 14.1923C15.4556 15.5589 17.8131 17.8951 17.2801 22.4386L19.9559 17.335L14.4823 13.1336C17.1045 12.1733 22.1401 14.5288 21.9377 19.0783L23.1703 13.771L15.7 10.4947C18.3248 8.96813 22.9359 9.29341 24.8789 14.2769L24.2144 8.24904C20.2483 8.36625 15.7575 7.95159 13.6493 7.14403C13.127 7.47017 12.6169 7.87428 12.0343 8.25169L11.5164 7.45238C12.197 7.01158 12.8873 6.41709 13.721 6.00752C15.3183 5.03939 16.8114 4.47348 19.3009 6.25835L16.5054 1.88855L16.5055 1.8886ZM11.6392 10.2261C11.2859 10.2183 10.959 10.3497 10.5263 10.8111L10.1924 11.1673L9.84471 10.8246C9.39968 10.386 9.03461 10.2561 8.66499 10.2724C8.29554 10.2887 7.87328 10.4796 7.40884 10.8555L7.09207 11.112L6.78978 10.8385C6.25511 10.3548 5.7874 10.2053 5.33921 10.2285C4.99335 10.2464 4.63953 10.3812 4.28918 10.6163L6.74213 15.0278C7.67571 15.6113 9.57702 15.8326 10.891 15.163L13.2773 10.7439C12.8064 10.5548 12.382 10.3509 12.0062 10.2733C11.8776 10.2468 11.757 10.2287 11.6392 10.226V10.2261ZM6.28094 15.8706C5.18556 16.6287 4.30513 17.9478 3.96839 19.8806C3.6451 21.7356 4.15633 23.005 5.06515 23.8661C5.97401 24.7272 7.33133 25.1668 8.70653 25.1489C10.0817 25.1311 11.4536 24.6551 12.3812 23.7791C13.309 22.9031 13.8339 21.6488 13.5381 19.8773C13.2297 18.0304 12.4226 16.7445 11.4021 15.9734C9.73153 16.8774 7.60223 16.6802 6.28094 15.8707V15.8706Z" fill="white"/>
</g>
<defs>
<clipPath id="clip0_957_1121">
<rect width="24" height="24" fill="white"/>
</clipPath>
</defs>
</svg>
