<svg width="24" height="24" viewBox="0 0 24 24" fill="none" xmlns="http://www.w3.org/2000/svg">
<path d="M11.9095 0.923767C9.27033 2.28305 6.92686 5.95425 6.16078 8.83191C7.68164 8.93081 8.90906 9.43955 9.84694 10.2779L10.2845 9.79988C9.65934 9.18788 8.85028 8.67956 7.80037 8.17299C8.39475 6.69445 9.30084 4.45627 10.4534 4.32595C10.9043 4.27495 11.3872 4.5473 11.9126 5.31352C13.557 2.57911 15.1186 6.19031 16.0248 8.17299C14.9964 8.73066 14.1905 9.24267 13.5578 9.86161L13.9647 10.3191C14.8872 9.48792 16.1078 8.94296 17.6467 8.83444C16.7925 5.96883 14.6023 2.35031 11.9095 0.923767ZM10.2945 6.77672C9.87764 6.77672 9.53972 6.96197 9.53972 7.19044C9.53972 7.41895 9.87769 7.60421 10.2945 7.60421C10.7115 7.60421 11.0495 7.41905 11.0495 7.19044C11.0495 6.96197 10.7115 6.77672 10.2945 6.77672ZM13.5273 6.77672C13.1104 6.77672 12.7724 6.96197 12.7724 7.19044C12.7724 7.41895 13.1103 7.60421 13.5273 7.60421C13.9442 7.60421 14.2822 7.41905 14.2822 7.19044C14.2822 6.96197 13.9442 6.77672 13.5273 6.77672ZM7.95412 10.0992C7.85147 10.2713 7.75055 10.4506 7.65206 10.6392C6.45267 12.9352 5.62425 16.435 5.59444 21.1148C7.13081 22.0003 8.60953 22.5832 10.0807 22.8487C8.41664 21.7068 7.25062 19.0568 7.25062 15.9696C7.25062 13.8147 7.81875 11.8732 8.72766 10.5083C8.48869 10.3503 8.23158 10.2135 7.95412 10.0993V10.0992ZM15.8729 10.1156C15.5985 10.2317 15.3446 10.3693 15.1089 10.5264C16.0108 11.8903 16.5739 13.8243 16.5739 15.9696C16.5739 19.0549 15.4094 21.7034 13.7471 22.8465C15.1946 22.584 16.674 22.0115 18.231 21.1146C18.201 16.4472 17.3727 12.9507 16.1731 10.6531C16.0753 10.4655 15.975 10.287 15.8729 10.1156H15.8729ZM11.2948 11.2223C11.6242 12.279 11.7227 13.3358 11.3407 14.3925H9.393V15.2603C9.86442 15.1084 10.3422 15.0076 10.8228 14.9512C10.8259 17.305 10.8843 19.4781 11.7518 21.7685L11.9484 22.2876L12.1586 21.7737C13.0717 19.5418 13.0045 17.3067 12.9992 14.9757C13.48 15.0382 13.9584 15.1351 14.431 15.2603V14.3924H12.4916C12.1687 13.3356 12.2136 12.2789 12.5293 11.2222H11.2948V11.2223Z" fill="white"/>
</svg>
