<svg width="24" height="24" viewBox="0 0 24 24" fill="none" xmlns="http://www.w3.org/2000/svg">
<path d="M19.4531 1.22251C17.3203 1.19673 14.1094 6.35157 13.6406 8.17501C13.2703 9.90938 17.0063 12.4969 17.6391 7.1297C17.8312 5.49845 20.2406 1.4897 19.6828 1.25063V1.24595C19.6781 1.24595 19.6688 1.24126 19.6547 1.24126C19.5891 1.22954 19.5188 1.22298 19.4531 1.22251ZM22.1578 2.25188C21.5859 2.18438 20.5453 6.61876 19.5609 7.90782C16.2844 12.2063 20.7656 12.9422 21.6984 11.4375C22.6734 9.75001 24 3.4772 22.2094 2.27251C22.2047 2.26782 22.1953 2.26313 22.1859 2.25845C22.1766 2.25376 22.1672 2.25282 22.1578 2.25188ZM6.10781 9.4922C3.96891 9.51563 1.22531 15.1219 0.945 17.0203C0.756094 18.7828 4.74375 20.9672 4.81875 15.5672C4.8375 13.9219 6.82031 9.68438 6.23906 9.50157V9.49688H6.21094C6.17812 9.4922 6.14531 9.4922 6.10781 9.4922ZM8.80781 10.2422C8.23125 10.2375 7.65469 14.7609 6.81094 16.1391C3.99563 20.7563 8.53125 21.0234 9.3 19.4297C10.0969 17.6484 10.7672 11.2688 8.85938 10.2563C8.85469 10.2516 8.84531 10.2516 8.83594 10.2469C8.82656 10.2422 8.81719 10.2422 8.80781 10.2422ZM14.2594 10.8C13.8328 10.7953 13.4766 10.95 13.3266 11.2453C13.0781 11.7563 13.5094 12.4875 14.3016 12.8859C15.0891 13.2797 15.9422 13.1859 16.1906 12.6797C16.4484 12.1688 16.0125 11.4375 15.2203 11.0438C15.1688 11.0156 15.1219 10.9969 15.075 10.9781C14.7938 10.8563 14.5125 10.8 14.2594 10.8ZM17.8875 12.2859C17.325 12.2859 16.8609 12.5109 16.7391 12.9C16.5656 13.4391 17.1141 14.1 17.9578 14.3625C18.8016 14.6297 19.6219 14.4047 19.7953 13.8609C19.9594 13.3594 19.4859 12.7453 18.7313 12.4547L18.5766 12.3984C18.3422 12.3234 18.1031 12.2906 17.8875 12.2859ZM1.95984 19.5563C1.47469 19.5703 1.08047 19.7672 0.950625 20.1047C0.756563 20.6391 1.26141 21.3234 2.09063 21.6375C2.91469 21.9469 3.75187 21.7641 3.94875 21.2344C4.155 20.7 3.64406 20.0203 2.81344 19.7109C2.75906 19.6875 2.71078 19.6734 2.66203 19.6594C2.42016 19.5844 2.18063 19.5516 1.95984 19.5563ZM5.82188 20.6625C5.15625 20.6578 4.61016 20.9438 4.51641 21.3984C4.39875 21.9516 5.01562 22.5516 5.88281 22.725C6.75 22.9031 7.54219 22.5938 7.65938 22.0359C7.77188 21.5203 7.2375 20.9578 6.45469 20.7469C6.40312 20.7375 6.35156 20.7234 6.29531 20.7094C6.13594 20.6766 5.97188 20.6625 5.82188 20.6625Z" fill="white"/>
</svg>
