<svg width="55" height="18" viewBox="0 0 55 18" fill="none" xmlns="http://www.w3.org/2000/svg">
<path d="M2.55827 6.60549L3.82246 8.07027L2.55827 9.53505M2.55827 6.60549L1.29407 8.07027L2.55827 9.53505M2.55827 6.60549V4.81849C2.55827 2.61631 4.33827 0.828347 6.54043 0.818526L49.0203 0.629078C51.2429 0.619165 53.0474 2.42318 53.0381 4.64584L53.0299 6.60549M2.55827 9.53505L2.54737 12.5969C2.53949 14.8115 4.33265 16.6111 6.54735 16.6111H49.0189C51.2225 16.6111 53.011 14.8289 53.0189 12.6253L53.0299 9.53505M53.0299 9.53505L54.2941 8.07027L53.0299 6.60549M53.0299 9.53505L51.7657 8.07027L53.0299 6.60549" stroke="white"/>
</svg>
