<svg width="82" height="115" viewBox="0 0 82 115" fill="none" xmlns="http://www.w3.org/2000/svg">
<path d="M15.2941 4.77775L41.2941 0.611084L65.2941 4.77775M15.2941 4.77775L41.2941 20.1111L65.2941 4.77775M15.2941 4.77775H7.29408V9.66664M39.2647 110.556L41.2941 107.889L43.3235 110.556M39.2647 110.556L41.2941 113.222L43.3235 110.556M39.2647 110.556H35.8823M43.3235 110.556H46.7058M65.2941 4.77775H74.2941V9.22219M0.823494 64.641L3.86761 68.3333V102.556M0.823494 64.641V102.556H3.86761M0.823494 64.641L0.783081 50.4527V20.1111V14.1111H3.29408M3.86761 102.556V107H7.24997M7.24997 107H33.1764L35.8823 110.556M7.24997 107V110.556H35.8823M46.7058 110.556L49.4117 107H74.2941M46.7058 110.556H74.2941V107M74.2941 107H78.2941V102.556M78.2941 102.556V68.7778L81 65.4957M78.2941 102.556H81V65.4957M81 65.4957V50.1111V13.6666H78.2941M78.2941 13.6666H74.2941V9.22219M78.2941 13.6666V9.22219H74.2941M3.29408 14.1111H7.29408V9.66664M3.29408 14.1111V9.66664H7.29408" stroke="white"/>
</svg>
