<svg width="24" height="24" viewBox="0 0 24 24" fill="none" xmlns="http://www.w3.org/2000/svg">
<g clip-path="url(#clip0_957_1496)">
<path d="M17.991 23.2272H6.00836C5.46321 23.2272 4.94039 23.0106 4.55492 22.6251C4.16944 22.2396 3.95288 21.7168 3.95288 21.1717V7.44012C3.95288 7.35881 3.98519 7.28084 4.04268 7.22334C4.10018 7.16585 4.17815 7.13354 4.25946 7.13354H19.7398C19.8211 7.13354 19.8991 7.16585 19.9565 7.22334C20.014 7.28084 20.0463 7.35881 20.0463 7.44012V21.1717C20.0463 21.7168 19.8298 22.2396 19.4443 22.625C19.0589 23.0105 18.5361 23.2271 17.991 23.2272Z" stroke="white" stroke-miterlimit="10"/>
<path d="M22.8503 15.6855H20.3537C20.2724 15.6855 20.1944 15.6532 20.1369 15.5957C20.0794 15.5382 20.0471 15.4603 20.0471 15.3789V9.08148C20.0471 9.00017 20.0794 8.92219 20.1369 8.8647C20.1944 8.8072 20.2724 8.7749 20.3537 8.7749H22.8503C23.0536 8.7749 23.2486 8.85565 23.3923 8.99939C23.536 9.14313 23.6168 9.33808 23.6168 9.54135V14.9191C23.6168 15.1223 23.536 15.3173 23.3923 15.461C23.2486 15.6048 23.0536 15.6855 22.8503 15.6855Z" stroke="white" stroke-miterlimit="10"/>
<path d="M20.413 7.13366H3.58594C3.27593 7.13366 2.96896 7.0726 2.68256 6.95397C2.39615 6.83533 2.13591 6.66144 1.9167 6.44224C1.6975 6.22303 1.52361 5.96279 1.40497 5.67638C1.28634 5.38997 1.22528 5.083 1.22528 4.77299V3.13264C1.22528 2.50655 1.47399 1.90611 1.9167 1.4634C2.35942 1.02068 2.95985 0.771973 3.58594 0.771973H20.4135C20.7235 0.771973 21.0305 0.833033 21.3169 0.951668C21.6033 1.0703 21.8635 1.24419 22.0828 1.4634C22.302 1.6826 22.4758 1.94284 22.5945 2.22925C22.7131 2.51566 22.7742 2.82263 22.7742 3.13264V4.77361C22.7742 5.08364 22.7132 5.39065 22.5945 5.67708C22.4759 5.96351 22.302 6.22375 22.0827 6.44293C21.8634 6.66211 21.6031 6.83592 21.3166 6.95444C21.0301 7.07296 20.7231 7.13386 20.413 7.13366Z" stroke="white" stroke-miterlimit="10"/>
<path d="M17.7473 21.2418H6.25256C6.17125 21.2418 6.09328 21.2095 6.03578 21.152C5.97829 21.0945 5.94598 21.0165 5.94598 20.9352V17.311C5.94598 17.2297 5.97829 17.1517 6.03578 17.0942C6.09328 17.0367 6.17125 17.0044 6.25256 17.0044H17.7473C17.8286 17.0044 17.9066 17.0367 17.9641 17.0942C18.0216 17.1517 18.0539 17.2297 18.0539 17.311V20.9352C18.0539 21.0165 18.0216 21.0945 17.9641 21.152C17.9066 21.2095 17.8286 21.2418 17.7473 21.2418Z" stroke="white" stroke-miterlimit="10"/>
<path d="M3.64632 15.6855H1.14969C0.946415 15.6855 0.751467 15.6048 0.607729 15.461C0.463992 15.3173 0.38324 15.1223 0.38324 14.9191V9.54135C0.38324 9.33808 0.463992 9.14313 0.607729 8.99939C0.751467 8.85565 0.946415 8.7749 1.14969 8.7749H3.64632C3.72763 8.7749 3.80562 8.8072 3.86311 8.8647C3.92061 8.92219 3.9529 9.00017 3.9529 9.08148V15.3789C3.9529 15.4603 3.92061 15.5382 3.86311 15.5957C3.80562 15.6532 3.72763 15.6855 3.64632 15.6855Z" stroke="white" stroke-miterlimit="10"/>
<path d="M8.04131 12.7727H6.86542C6.78411 12.7727 6.70613 12.7437 6.64864 12.692C6.59114 12.6404 6.55884 12.5703 6.55884 12.4973V0.772705H8.34789V12.4973C8.34789 12.5703 8.31559 12.6404 8.2581 12.692C8.2006 12.7437 8.12262 12.7727 8.04131 12.7727Z" stroke="white" stroke-miterlimit="10"/>
<path d="M17.1341 12.7727H15.9583C15.8769 12.7727 15.799 12.7437 15.7415 12.692C15.684 12.6404 15.6517 12.5703 15.6517 12.4973V0.772705H17.4407V12.4973C17.4407 12.5703 17.4084 12.6404 17.3509 12.692C17.2934 12.7437 17.2154 12.7727 17.1341 12.7727Z" stroke="white" stroke-miterlimit="10"/>
</g>
<defs>
<clipPath id="clip0_957_1496">
<rect width="24" height="24" fill="white"/>
</clipPath>
</defs>
</svg>
