<svg width="23" height="25" viewBox="0 0 23 25" fill="none" xmlns="http://www.w3.org/2000/svg">
<path d="M10.5839 24.1861C10.8745 24.3504 11.0198 24.4326 11.2248 24.4752C11.384 24.5083 11.616 24.5083 11.7752 24.4752C11.9802 24.4326 12.1255 24.3504 12.4161 24.1861C14.9729 22.74 22 18.1974 22 11.9518V5.08074C22 4.37081 22 4.01584 21.859 3.7453C21.7341 3.50545 21.5389 3.314 21.293 3.19002C21.0156 3.05018 20.6433 3.04592 19.8984 3.03738C15.9982 2.99267 13.7491 2.68044 11.5 0.5C9.2509 2.68044 7.00179 2.99267 3.10158 3.03738C2.35677 3.04592 1.98436 3.05018 1.70698 3.19002C1.46107 3.314 1.2659 3.50545 1.14095 3.7453C1 4.01584 1 4.37081 1 5.08074V11.9518C1 18.1974 8.02707 22.74 10.5839 24.1861Z" stroke="white" stroke-linecap="round" stroke-linejoin="round"/>
</svg>
