<svg width="25" height="24" viewBox="0 0 25 24" fill="none" xmlns="http://www.w3.org/2000/svg">
<path d="M18.2952 0.302575C18.1342 0.476327 18 0.783735 18 0.984218C18 1.37182 18.5233 2 18.8588 2C19.2345 2 19.7175 1.70596 19.8651 1.37182C20.0798 0.890659 20.053 0.690176 19.6773 0.329306C19.2613 -0.098392 18.6843 -0.111758 18.2952 0.302575Z" fill="white"/>
<path d="M5.84119 1.25633C5.58383 1.4861 5.54319 1.65843 5.54319 2.5775V3.63442H4.6492C3.83648 3.63442 3.72811 3.66889 3.34884 3.97907C3.02376 4.26628 2.95603 4.39266 3.02376 4.6454C3.1863 5.18535 3.56557 5.35768 4.60856 5.35768H5.54319V6.44907C5.54319 7.71279 5.73283 8 6.54555 8C7.33118 8 7.57499 7.6094 7.57499 6.38014V5.35768H8.49608C9.29525 5.35768 9.47134 5.32321 9.71516 5.09345C10.0809 4.76028 10.0944 4.32373 9.75579 3.96759C9.53907 3.74931 9.34943 3.69187 8.55026 3.6574L7.60208 3.61145L7.5479 2.52005C7.50727 1.54354 7.48017 1.40568 7.18218 1.21038C6.74873 0.911683 6.19337 0.934659 5.84119 1.25633Z" fill="white"/>
<path d="M19.1705 6.1841C16.8339 7.05174 16.2651 9.58892 18.0483 11.127C19.7393 12.5599 22.5063 12.1787 23.5978 10.3514C24.8122 8.28746 23.1366 5.98691 20.4464 6.00006C20.0006 6.0132 19.4318 6.09208 19.1705 6.1841ZM21.3227 8.30061C22.0298 8.89218 21.6916 9.8124 20.7078 10.0227C19.9391 10.1805 19.1397 9.45746 19.3242 8.74757C19.5241 7.97196 20.6463 7.70904 21.3227 8.30061Z" fill="white"/>
<path d="M9.18212 10.1122C8.77377 10.2698 8.34067 11.0873 8.00656 12.3579C7.83332 12.9784 7.59821 13.8353 7.48684 14.2589C7.25173 15.1453 7.38785 15.0665 5.38321 15.5196C3.26721 15.9924 2.599 16.3568 2.599 17.0266C2.599 17.6963 3.09397 17.9524 5.55645 18.5532C6.45978 18.7699 7.22698 18.9669 7.26411 18.9866C7.28886 19.0162 7.51159 19.7844 7.7467 20.6906C8.46441 23.4681 8.77377 24 9.68947 24C10.667 24 11.0011 23.4681 11.6941 20.8186C11.9416 19.8731 12.2138 19.0556 12.2881 18.9866C12.3747 18.9275 13.0676 18.7404 13.8472 18.5631C16.2602 18.0214 16.8542 17.7259 16.8542 17.0463C16.8542 16.2977 16.3592 16.0416 13.8349 15.4507C12.8573 15.2241 12.2386 15.0271 12.1891 14.9286C12.152 14.8498 11.9168 14.0225 11.6817 13.1065C11.4342 12.1806 11.1249 11.1957 10.9888 10.91C10.6175 10.1122 9.9617 9.81675 9.18212 10.1122ZM10.0854 14.2786C10.2711 14.9286 10.4938 15.5787 10.5928 15.7264C10.865 16.15 11.36 16.3864 12.6717 16.7114L13.9091 17.0167L12.7954 17.2728C10.766 17.7554 10.5804 17.9229 10.0854 19.745C9.92458 20.3458 9.77609 20.8679 9.73897 20.8876C9.71422 20.9171 9.61522 20.6512 9.54098 20.3163C9.20687 18.9472 8.89751 18.1987 8.53866 17.9229C8.31592 17.7554 7.73433 17.5486 6.91763 17.3319C6.21229 17.1546 5.71732 16.9872 5.81631 16.9576C5.91531 16.9281 6.4969 16.7803 7.10324 16.6424C8.77377 16.2485 8.99651 15.9924 9.49148 13.9141C9.60285 13.4414 9.71422 13.0572 9.72659 13.0769C9.73897 13.0868 9.89983 13.6285 10.0854 14.2786Z" fill="white"/>
<path d="M1.56915 22.1186C0.967392 22.3591 0.806923 23.2009 1.26158 23.6953C1.66276 24.1229 2.35812 24.0962 2.71918 23.6419C2.87965 23.4415 3 23.2009 3 23.1074C3 22.76 2.69243 22.279 2.3715 22.132C1.99707 21.9583 1.97032 21.9583 1.56915 22.1186Z" fill="white"/>
<path d="M19.5692 20.1186C18.9674 20.3591 18.8069 21.2009 19.2616 21.6953C19.6628 22.1229 20.3581 22.0962 20.7192 21.6419C20.8796 21.4415 21 21.2009 21 21.1074C21 20.76 20.6924 20.279 20.3715 20.132C19.9971 19.9583 19.9703 19.9583 19.5692 20.1186Z" fill="white"/>
</svg>
