<svg width="24" height="24" viewBox="0 0 24 24" fill="none" xmlns="http://www.w3.org/2000/svg">
<path d="M6.45704 18.7422C6.71652 18.2696 7.09136 17.8153 7.5628 17.4588L7.60128 17.6067C7.02403 18.0623 6.56311 18.6162 6.24055 19.212C6.29735 19.0587 6.36862 18.9014 6.45584 18.7444L6.45704 18.7422ZM17.7939 13.6801L17.6211 12.7038L20.5343 12.8262L21.8577 17.9094L9.35663 16.9066L8.15458 12.2987L10.8074 12.412L11.0058 13.5572L11.074 13.9509L11.473 13.9712L17.2762 14.2666L17.9034 14.2985L17.7939 13.6801ZM9.21869 18.7777L20.5393 19.6885C20.5002 19.7316 20.4627 19.7756 20.4268 19.8205L20.1396 20.1794L20.3692 20.3971L19.2018 20.5811L17.4117 20.8633L19.0933 21.539L19.8485 21.8424C19.8652 21.9861 19.8928 22.1268 19.9299 22.2632L7.60821 21.2215C7.62065 20.9171 7.71451 20.541 7.91685 20.1487C8.18303 19.6326 8.6172 19.1297 9.21869 18.7777ZM9.84806 6.86405L9.88066 7.05092L6.74342 6.87999L5.40021 1.72115L17.9011 2.72831L19.162 7.5629L16.6845 7.42581L16.5237 6.51322L16.4552 6.12455L16.0612 6.10091L10.2815 5.75403L9.65336 5.71633L9.75861 6.33676L9.84767 6.86176L9.84806 6.86405ZM3.55392 2.06941C3.26663 2.25033 3.00363 2.46113 2.76401 2.6934C2.99302 2.41532 3.25501 2.16926 3.53095 1.98025L3.55392 2.06941ZM3.04324 5.6068C3.29374 5.00952 3.64834 4.46018 4.06977 4.04954L4.93501 7.37538C4.23144 7.76181 3.65704 8.32414 3.18835 8.9279L2.67911 7.07586C2.71663 6.63502 2.8342 6.10954 3.04324 5.6068ZM15.687 12.3368L12.6358 12.186L11.8638 7.69947L14.8954 7.88171L15.687 12.3368ZM10.4868 10.551L7.6703 10.4331L7.23315 8.75445L10.2022 8.91939L10.4868 10.551ZM3.84792 11.3247C4.28251 10.5336 4.82266 9.76263 5.42761 9.27237L5.82967 10.8131C5.05302 11.3013 4.51622 11.7919 4.10723 12.2675L3.84792 11.3247ZM20.0449 10.9559L17.2926 10.838L17.0182 9.29055L19.6475 9.43682L20.0449 10.9559ZM7.06049 15.5442C6.39242 15.9192 5.83724 16.4158 5.39829 16.9623L4.74009 14.5702C4.75915 14.5389 4.77795 14.5079 4.79651 14.4773L4.79699 14.4765C5.04062 14.0748 5.24735 13.736 5.54912 13.3961C5.74734 13.1728 5.99203 12.9434 6.32079 12.7013L7.06049 15.5442Z" stroke="white"/>
</svg>
