<svg width="22" height="27" viewBox="0 0 22 27" fill="none" xmlns="http://www.w3.org/2000/svg">
<path d="M11.045 1.5L1 7.52317M11.045 1.5L21 7.52317M11.045 1.5L17.1712 10.0714M11.045 1.5L4.87387 10.0714M1 7.52317V19.4305M1 7.52317L4.87387 10.0714M1 19.4305L11.045 25.5M1 19.4305L11.045 20.9595M1 19.4305L4.87387 10.0714M11.045 25.5L21 19.4305M11.045 25.5V20.9595M21 19.4305V7.52317M21 19.4305L17.1712 10.0714M21 19.4305L11.045 20.9595M21 7.52317L17.1712 10.0714M17.1712 10.0714L11.045 20.9595M17.1712 10.0714H4.87387M11.045 20.9595L4.87387 10.0714" stroke="white"/>
</svg>
