<svg width="22" height="23" viewBox="0 0 22 23" fill="none" xmlns="http://www.w3.org/2000/svg">
<path d="M1.00969 0.5L0.696563 1.28375L4.44844 2.78422L4.75781 2.00047L1.00969 0.5ZM20.1984 0.500469L16.4484 2.00047L16.7578 2.78422L20.5078 1.28422L20.1984 0.500469ZM10.6031 0.564219C9.24375 0.564219 8.25937 1.22422 7.57031 2.17156C6.88125 3.11938 6.525 4.36109 6.525 5.39234C6.525 6.00172 6.85312 6.69547 7.20469 7.22047C7.55625 7.74547 7.90312 8.09234 7.90312 8.09234L7.97344 8.16266L8.40937 9.47047H9.29062L7.72969 3.98938L10.6031 4.94703L13.4766 3.98938L11.9156 9.47047H12.7969L13.2328 8.16266L13.3031 8.09234C13.3031 8.09234 13.65 7.74547 14.0016 7.22047C14.3531 6.69547 14.6813 6.00172 14.6813 5.39234C14.6813 4.36109 14.325 3.11938 13.6359 2.17156C12.9469 1.22422 11.9625 0.564219 10.6031 0.564219ZM16.6031 4.97047V5.81422H21.1031V4.97047H16.6031ZM0.103125 4.97516V5.81891H4.60312V4.97516H0.103125ZM8.97656 5.29391L10.1719 9.47047H11.0344L12.2297 5.29391L10.6031 5.83766L8.97656 5.29391ZM16.7578 7.99859L16.4484 8.78609L20.1984 10.2861L20.5078 9.49859L16.7578 7.99859ZM4.44844 8.00328L0.696563 9.50328L1.00969 10.2908L4.75781 8.79078L4.44844 8.00328ZM8.775 10.3142V10.9705H12.4313V10.3142H8.775ZM8.775 11.8142V12.4705H12.4313V11.8142H8.775ZM6.57656 11.9361C5.30625 11.9595 4.11094 12.1705 3.44062 12.4564L0 22.0845C3.33281 21.4236 6.74531 20.8658 10.1812 22.0423V13.3142H7.93125V11.9877C7.56094 11.9548 7.18125 11.9361 6.81094 11.9361H6.57656ZM14.3953 11.9361C14.025 11.9361 13.6453 11.9548 13.275 11.9877V13.3142H11.025V22.0423C14.4609 20.8658 17.8734 21.4236 21.2063 22.0845L17.7656 12.4564C17.0953 12.1705 15.9 11.9595 14.6297 11.9361H14.3953Z" fill="white"/>
</svg>
