<svg width="25" height="24" viewBox="0 0 25 24" fill="none" xmlns="http://www.w3.org/2000/svg">
<path d="M21.5087 11.9998H19.1448C18.4868 11.9998 18.1578 11.9998 17.8665 12.1296C17.5752 12.2593 17.355 12.504 16.9146 12.9932L15.8854 14.1369C15.5241 14.5382 15.3435 14.7389 15.1144 14.734C14.8853 14.7291 14.7136 14.521 14.3703 14.1048L10.8421 9.82819C10.522 9.44017 10.3619 9.24615 10.1447 9.23311C9.92744 9.22006 9.7453 9.39352 9.38104 9.74044L7.87764 11.1723C7.44853 11.5809 7.23397 11.7853 6.96576 11.8926C6.69754 11.9998 6.40125 11.9998 5.80867 11.9998H3.50867" stroke="white" stroke-linecap="round"/>
<path d="M12.5087 5.50056L11.9683 6.02066C12.1097 6.16756 12.3048 6.25056 12.5087 6.25056C12.7126 6.25056 12.9077 6.16756 13.0491 6.02066L12.5087 5.50056ZM3.16533 13.3964C3.38425 13.748 3.84678 13.8556 4.19841 13.6367C4.55004 13.4178 4.65762 12.9552 4.4387 12.6036L3.16533 13.3964ZM7.03836 15.7718C6.74512 15.4793 6.27025 15.4798 5.9777 15.7731C5.68516 16.0663 5.68573 16.5412 5.97898 16.8337L7.03836 15.7718ZM3.25867 9.13702C3.25867 6.33414 4.51589 4.59503 6.08788 3.99707C7.66413 3.39749 9.85996 3.83016 11.9683 6.02066L13.0491 4.98046C10.6576 2.49579 7.85337 1.72065 5.55458 2.59508C3.25153 3.47112 1.75867 5.8878 1.75867 9.13702H3.25867ZM16.0113 19.4999C17.5036 18.3234 19.2924 16.7461 20.7148 14.9838C22.1213 13.2412 23.2587 11.2089 23.2587 9.13698H21.7587C21.7587 10.688 20.8864 12.3829 19.5476 14.0417C18.2247 15.6807 16.5326 17.1788 15.0827 18.3219L16.0113 19.4999ZM23.2587 9.13698C23.2587 5.88779 21.7658 3.47111 19.4628 2.59507C17.164 1.72066 14.3598 2.49579 11.9683 4.98046L13.0491 6.02066C15.1574 3.83016 17.3532 3.39749 18.9295 3.99707C20.5015 4.59502 21.7587 6.33414 21.7587 9.13698H23.2587ZM9.00609 19.4998C10.2804 20.5044 11.1588 21.2359 12.5087 21.2359V19.7359C11.778 19.7359 11.3244 19.4174 9.93472 18.3219L9.00609 19.4998ZM15.0827 18.3219C13.693 19.4174 13.2394 19.7359 12.5087 19.7359V21.2359C13.8586 21.2359 14.737 20.5044 16.0113 19.4999L15.0827 18.3219ZM4.4387 12.6036C3.6927 11.4054 3.25867 10.2312 3.25867 9.13702H1.75867C1.75867 10.617 2.33921 12.0695 3.16533 13.3964L4.4387 12.6036ZM9.93472 18.3219C9.01775 17.599 7.9996 16.7307 7.03836 15.7718L5.97898 16.8337C6.99214 17.8445 8.05686 18.7515 9.00609 19.4998L9.93472 18.3219Z" fill="white"/>
</svg>
