<svg width="24" height="24" viewBox="0 0 24 24" fill="none" xmlns="http://www.w3.org/2000/svg">
<path d="M0.0191047 0.880671C-0.0176168 1.40729 0.000743945 1.97707 0.0558261 2.28786C0.110908 2.57276 0.175171 3.33247 0.193532 3.97132C0.211892 4.80873 0.266975 5.27492 0.386319 5.61161C0.514844 5.96556 0.542386 6.28499 0.524025 6.88067C0.468943 8.27923 0.753534 8.75405 2.36928 9.90225C3.48928 10.6965 4.14109 11.2922 4.62765 11.9656C6.40864 14.4519 10.4021 14.6764 12.0821 12.3886C13.046 11.0764 12.8716 9.23751 11.6965 8.2447C10.2277 7.00153 7.79488 7.28643 7.03291 8.77995C6.61979 9.59146 6.82176 10.6965 7.46438 11.1195C8.04275 11.4994 8.83226 11.5857 9.38308 11.344C10.2736 10.9469 10.1267 9.58283 9.19029 9.58283C8.65783 9.58283 8.37324 9.96269 8.59357 10.3684C8.74963 10.6361 8.44668 10.5756 8.12537 10.2821C7.33586 9.53103 8.50176 8.21017 9.76865 8.42599C11.7149 8.76269 12.2749 10.9296 10.7418 12.2591C9.94308 12.9497 8.88734 13.1828 7.76733 12.9152C6.77586 12.6735 6.18831 12.2418 5.26109 11.0677C4.71027 10.3684 4.18699 9.90225 2.90174 8.98715C1.91944 8.27923 1.65321 7.96844 1.56141 7.45909L1.50632 7.10513L2.39682 7.51952C2.88338 7.75261 3.37912 7.94254 3.49846 7.94254C3.89322 7.94254 4.14109 7.50225 3.92994 7.19146C3.89322 7.13966 3.48928 6.9152 3.03026 6.69938C1.80928 6.12096 1.24927 5.48211 1.24927 4.63607C1.24927 4.40297 1.25845 4.40297 2.11223 4.96412C2.98436 5.53391 3.37912 5.64614 3.61781 5.42168C3.76469 5.28355 3.75551 4.90369 3.61781 4.73103C3.55355 4.66197 3.23223 4.42887 2.90174 4.22168C1.71747 3.47923 1.23091 2.91808 1.10239 2.14974C1.04731 1.84758 1.05649 1.79578 1.16665 1.86484C1.24009 1.89938 1.78174 2.23607 2.37846 2.59866C3.4801 3.28067 5.3529 4.18715 6.61979 4.66197C7.84078 5.11952 8.8598 5.13679 9.53915 4.7224C9.82374 4.54974 10.1542 3.91952 10.1542 3.55693C10.1542 3.41017 10.191 3.27204 10.2277 3.24614C10.2919 3.21161 16.6723 5.10225 17.4434 5.37851C17.5536 5.42168 17.471 5.60297 17.0762 6.23319C15.4605 8.79722 14.3313 11.4389 14.1477 13.0447C13.9916 14.4519 14.6251 16.1008 15.589 16.7483C16.3418 17.2663 16.8651 17.3699 19.6559 17.603C20.8769 17.7066 21.4644 17.8792 22.052 18.2936C22.6946 18.7425 22.9425 19.2087 22.9333 19.9339C22.9333 20.2447 22.8507 20.7195 22.7589 20.9785L22.5936 21.4533L18.6369 21.4792L14.671 21.4965L13.0369 20.7368C10.5031 19.5713 9.77783 19.3296 7.07881 18.7771C5.7752 18.5181 4.69191 18.285 4.68273 18.2764C4.67355 18.2677 5.05913 17.4648 5.52733 16.4893C5.99552 15.5138 6.3811 14.6332 6.3811 14.5296C6.39946 14.1497 5.87618 13.9339 5.54569 14.1756C5.47224 14.2361 4.95814 15.2202 4.4165 16.3598C3.05781 19.2001 3.14961 18.9756 3.3424 19.0274C3.42502 19.0533 4.67355 19.3123 6.10569 19.5972C7.53783 19.8821 8.91488 20.1756 9.15357 20.2361C9.87882 20.4433 11.2742 21.0303 12.9083 21.8073L14.4323 22.5325H18.8205H23.1995L23.4749 21.9713C24.5031 19.8389 23.9982 18.0087 22.1621 17.1627C21.4277 16.8174 20.6933 16.6792 19.2336 16.5756C17.5261 16.4548 17.012 16.3684 16.5254 16.1008C15.0841 15.3066 14.8179 13.3814 15.8002 10.921C16.351 9.55693 17.4893 7.49362 18.6185 5.81017C18.9123 5.36988 19.151 4.98139 19.151 4.93822C19.151 4.86916 9.28209 1.81305 9.05259 1.81305C8.97914 1.81305 8.96078 1.88211 8.9975 2.00297C9.03423 2.1152 9.08013 2.52096 9.11685 2.90945C9.17193 3.58283 9.16275 3.61736 8.93324 3.83319C8.49258 4.24758 7.91422 4.14398 6.02307 3.33247C4.59093 2.71089 3.50764 2.10657 1.58895 0.872038C0.845338 0.397219 0.202712 9.53674e-05 0.15681 9.53674e-05C0.110908 9.53674e-05 0.0558261 0.397219 0.0191047 0.880671Z" fill="white"/>
<path d="M2.92011 19.5626C2.69978 19.7093 2.65387 20.0029 2.83748 20.2273C2.97519 20.4086 8.02439 21.4532 8.36406 21.3755C8.82308 21.2633 8.768 20.6158 8.29062 20.469C8.01521 20.3827 3.31486 19.4244 3.18634 19.4244C3.14961 19.4244 3.03027 19.4849 2.92011 19.5626Z" fill="white"/>
<path d="M17.6638 23.0417C16.1674 23.0676 14.9188 23.1194 14.8913 23.1453C14.7444 23.2835 14.7352 23.7237 14.8821 23.8532C15.0198 23.9827 15.4146 24 18.9307 24C22.7038 24 22.8323 23.9914 23.0067 23.8273C23.2271 23.6201 23.2362 23.4043 23.0618 23.1712C22.9058 22.9813 22.2539 22.964 17.6638 23.0417Z" fill="white"/>
</svg>
