<svg width="22" height="23" viewBox="0 0 22 23" fill="none" xmlns="http://www.w3.org/2000/svg">
<path d="M19.6399 3.06082C19.4899 2.43752 19.2173 1.92284 18.8244 1.54505C18.3495 1.0884 17.6507 0.785325 16.6427 0.776345C15.5596 0.97962 13.6409 1.1119 11.5915 1.15692C9.50212 1.20282 7.2338 1.15884 5.50243 0.997192L5.41869 0.989373L5.34212 0.954589C4.69545 0.660834 4.03288 0.49711 3.39929 0.500039L3.39921 0.500039C3.35339 0.500244 3.30752 0.501351 3.26161 0.503328L19.6399 3.06082ZM19.6399 3.06082L17.6961 3.39083L16.356 3.61836L17.5241 4.31346L18.4074 4.83901L17.93 4.92515L16.6276 5.16016L17.76 5.84504L19.3639 6.81504C18.9246 8.22813 18.1588 9.62218 17.1777 10.6942C15.6781 12.3327 14.8456 14.3909 14.7497 16.438H6.8818H6.3818V16.4972C6.22085 16.5233 6.06004 16.5625 5.90075 16.6154L19.6399 3.06082ZM5.62523 21.5994C4.91506 21.368 4.3367 20.7908 4.09239 20.0877C3.56609 18.5734 4.5403 17.0677 5.90065 16.6155L5.62523 21.5994ZM5.62523 21.5994C5.40399 21.619 5.17394 21.6316 4.9377 21.6374L4.50905 21.6345H4.50562C3.73299 21.6345 3.18238 21.3933 2.78819 21.0094C2.38463 20.6164 2.10346 20.0326 1.95919 19.2837C1.68202 17.8448 1.93686 15.9249 2.61109 14.045L4.96255 13.6512L5.90579 13.4932L5.23777 12.8088L3.87112 11.4086C3.90112 11.3599 3.93134 11.3115 3.96182 11.2636L3.5399 10.9953L3.96182 11.2636C5.00434 9.62406 5.94783 7.95994 6.47232 6.40011L6.69403 5.74075H5.9984H3.65941V5.69813L3.14989 5.70784C3.14582 5.70792 3.14195 5.70799 3.13826 5.70806C3.11706 5.70848 3.10145 5.70878 3.08521 5.70878C0.946108 5.70878 -0.0942663 3.32146 0.848563 1.88875L5.62523 21.5994ZM2.9512 0.530984L2.95108 0.531C2.14649 0.640596 1.38504 1.07371 0.848583 1.88873L2.9512 0.530984ZM2.9512 0.530984C3.05365 0.517005 3.15714 0.507842 3.26156 0.503331L2.9512 0.530984ZM8.14844 19.2862L8.14844 19.2862C8.03263 18.7756 7.46971 18.3397 6.86187 18.3377C6.82372 18.3376 6.78545 18.3393 6.74724 18.3428C6.6604 18.3508 6.57519 18.3682 6.49267 18.3957L6.49237 18.3958C5.99186 18.5621 5.72934 19.0835 5.86436 19.472L5.86437 19.472C5.96779 19.7696 6.26299 19.8782 6.42251 19.82L8.14844 19.2862ZM8.14844 19.2862C8.18884 19.4643 8.21127 19.622 8.22035 19.7627H6.66749H6.57874L6.4954 19.7933L6.42276 19.8199L8.14844 19.2862ZM19.4809 21.7258H9.58892L18.4406 18.3139L17.8827 18.5865L16.353 19.3338L18.0439 19.5323L20.9756 19.8764C20.9843 19.9366 20.99 19.9975 20.9925 20.0589L20.9925 20.059C21.0108 20.4969 20.8651 20.9286 20.6086 21.2316C20.3588 21.5268 20.008 21.7258 19.4809 21.7258ZM9.87091 21.1947C10.1464 20.5146 10.1723 19.7278 9.97792 18.8713L9.8709 21.1947C9.87091 21.1947 9.87091 21.1947 9.87091 21.1947Z" fill="white" stroke="white"/>
</svg>
