<svg width="28" height="23" viewBox="0 0 28 23" fill="none" xmlns="http://www.w3.org/2000/svg">
<path d="M19 9.83882H22V7.83881H21M19 9.83882H13.5V7.83881H17.25H21M19 9.83882C17.5 13.8388 16.4528 15.6332 16.1175 19.8388M7 19.8388V22.3388H16C16.0176 21.4346 16.0562 20.6083 16.1175 19.8388M7 19.8388H16.1175M7 19.8388V18.3388C3 18.3388 4.21292 16.4851 4.00049 13.8398H1L3 9.83977C2.5 3.83392 8.5 -2.1671 15 1.83293M15 1.83293C15 1.83293 14 1.83392 14.5 7.83392M15 1.83293C17 -0.666804 22 -0.166771 21 7.83881M17.5 7.83323V4.83323M17.5 4.83323C17.5 4.83323 16.5 4.83323 16.5 3.83323C16.5 2.83323 17.5 2.83323 17.5 2.83323C17.5 2.83323 18.5 2.83323 18.5 3.83323C18.5 4.83323 17.5 4.83323 17.5 4.83323ZM22.3019 19.0369H19V17.9363H22.3019V14.6344H23.4025V17.9363H26.7044V19.0369H23.4025V22.3388H22.3019V19.0369Z" stroke="white" stroke-linecap="round" stroke-linejoin="round"/>
</svg>
