<svg width="24" height="24" viewBox="0 0 24 24" fill="none" xmlns="http://www.w3.org/2000/svg">
<path d="M20 10.3388H23V8.33884H22M20 10.3388H14.5V8.33884H18.25H22M20 10.3388C18.5 14.3388 17.4528 16.1333 17.1175 20.3388M8 20.3388V22.8388H17C17.0176 21.9347 17.0562 21.1084 17.1175 20.3388M8 20.3388H17.1175M8 20.3388V18.8388C4 18.8388 5.21292 16.9851 5.00049 14.3398H2L4 10.3398C3.5 4.33394 9.5 -1.66707 16 2.33296M16 2.33296C16 2.33296 15 2.33394 15.5 8.33394M16 2.33296C18 -0.166781 23 0.333252 22 8.33884M18.5 8.33325V5.33325M18.5 5.33325C18.5 5.33325 17.5 5.33325 17.5 4.33325C17.5 3.33325 18.5 3.33325 18.5 3.33325C18.5 3.33325 19.5 3.33325 19.5 4.33325C19.5 5.33325 18.5 5.33325 18.5 5.33325Z" stroke="white" stroke-linecap="round" stroke-linejoin="round"/>
</svg>
