<svg width="24" height="24" viewBox="0 0 24 24" fill="none" xmlns="http://www.w3.org/2000/svg">
<path d="M3.09004 1.34373L3.08985 1.34373C3.01136 1.34636 2.93414 1.37492 2.87024 1.43133L3.09004 1.34373ZM3.09004 1.34373C3.09601 1.34352 3.10218 1.34348 3.10837 1.34362L3.10906 1.34363M3.09004 1.34373L3.10906 1.34363M3.10906 1.34363C3.20449 1.34554 3.29709 1.38544 3.36467 1.46194L3.10906 1.34363ZM3.3742 1.99783L3.43577 1.79711C3.4712 1.68161 3.44713 1.55531 3.36468 1.46195L3.3742 1.99783ZM3.3742 1.99783L3.16794 2.03694C3.04801 2.05968 2.92336 2.02045 2.83962 1.92567L3.3742 1.99783ZM20.8825 1.99777L21.0888 2.03689C21.2087 2.05964 21.3334 2.02041 21.4171 1.92568L20.8825 1.99777ZM20.8825 1.99777L20.8209 1.79722C20.7855 1.68179 20.8096 1.55544 20.8921 1.46199L20.8922 1.46195C20.9597 1.38554 21.0522 1.34558 21.1479 1.34363L21.1484 1.34362L20.8825 1.99777ZM7.3621 5.03669L8.94617 3.63736L9.26967 4.00359C8.58515 4.28717 7.94764 4.6299 7.3621 5.03669ZM8.90414 6.66258L9.30046 7.11124C8.6096 7.206 7.91521 7.33309 7.21601 7.49292L6.99035 6.31111L6.93613 6.02713L7.22234 6.11954L8.90414 6.66258ZM4.31679 7.72686L5.80325 6.41377C5.35879 6.91198 4.96648 7.46676 4.62924 8.08055L4.31679 7.72686ZM18.4534 6.41367L19.9399 7.72683L19.6275 8.08047C19.2902 7.46667 18.8979 6.91188 18.4534 6.41367ZM15.3105 3.63737L16.8938 5.03601C16.3084 4.62952 15.6712 4.28702 14.9871 4.00359L15.3105 3.63737ZM17.0345 6.11944L17.3205 6.02706L17.2663 6.31106L17.0583 7.4005C16.3724 7.2561 15.6872 7.14247 15.0012 7.06036L15.3527 6.66258L17.0345 6.11944ZM2.83961 1.92565C2.71157 1.78069 2.72527 1.55943 2.87019 1.43137L2.83961 1.92565ZM21.1676 1.34371C21.2456 1.34644 21.3226 1.37494 21.3865 1.43124C21.5314 1.55928 21.5451 1.78061 21.4171 1.92561L21.1676 1.34371ZM8.47145 15.6318C7.64391 13.6093 7.24724 11.3826 7.24061 9.41749C9.00069 8.98193 10.7078 8.7697 12.3978 8.77389C14.0799 8.77806 15.7524 8.99642 17.4508 9.4167C17.434 11.3682 16.9885 13.6079 16.1244 15.6428C15.2471 17.7086 13.9578 19.5196 12.2968 20.6202C10.5805 19.492 9.3117 17.6853 8.47145 15.6318ZM2.91208 22.3386L3.29997 20.3071L6.73545 16.4179C7.02505 17.1188 7.3636 17.8009 7.75386 18.4497L4.88018 21.7029L2.91208 22.3386ZM19.3765 21.7029L16.6972 18.6698C17.0974 18.0382 17.4502 17.3717 17.7568 16.6846L20.9566 20.3071L21.3445 22.3386L19.3765 21.7029Z" stroke="white"/>
</svg>
