<svg width="23" height="22" viewBox="0 0 23 22" fill="none" xmlns="http://www.w3.org/2000/svg">
<path d="M5.79548 12.8386L9.33799 16.3808L7.97493 17.744L7.7097 18.0093L7.97502 18.2744L9.34013 19.6387L8.24125 20.7368L5.65435 18.1516L5.38927 17.8867L5.12419 18.1516L2.12937 21.1445L1.03045 20.0463L4.02503 17.0525L4.2904 16.7872L4.02493 16.522L1.43847 13.9383L2.53739 12.84L3.90168 14.2025L4.16685 14.4673L4.43184 14.2023L5.79548 12.8386ZM20.4626 12.84L21.5616 13.9384L18.9761 16.5233L18.7109 16.7885L18.9761 17.0537L21.9695 20.0463L20.8706 21.1445L17.8758 18.1516L17.6107 17.8867L17.3456 18.1516L14.7587 20.7368L13.6598 19.6386L15.0239 18.2743L15.2892 18.0091L15.0238 17.7439L1.50749 4.23615L1.50448 0.700757L5.05987 0.703763L18.5671 14.2036L18.8321 14.4684L19.0972 14.2037L20.4626 12.84ZM13.6588 4.98129L17.9433 0.700571L21.496 0.703577L21.4981 4.23059L17.2028 8.52205L13.6588 4.98129Z" fill="white" stroke="#272D33" stroke-width="0.75"/>
</svg>
